<svg width="50" height="50" viewBox="0 0 50 50" fill="none" xmlns="http://www.w3.org/2000/svg">
<path d="M20.8334 8.33329V4.16663M29.1667 8.33329V4.16663M29.1667 41.6666V45.8333M20.8334 41.6666V45.8333M41.6667 20.8333H45.8334M41.6667 29.1666H45.8334M8.33335 20.8333H4.16669M8.33335 29.1666H4.16669M16.6667 41.6666H33.3334C37.9357 41.6666 41.6667 37.9357 41.6667 33.3333V16.6666C41.6667 12.0643 37.9357 8.33329 33.3334 8.33329H16.6667C12.0643 8.33329 8.33335 12.0643 8.33335 16.6666V33.3333C8.33335 37.9357 12.0643 41.6666 16.6667 41.6666ZM22.9167 31.25H27.0834C29.3845 31.25 31.25 29.3845 31.25 27.0833V22.9166C31.25 20.6154 29.3845 18.75 27.0834 18.75H22.9167C20.6155 18.75 18.75 20.6154 18.75 22.9166V27.0833C18.75 29.3845 20.6155 31.25 22.9167 31.25Z" stroke="#693B93" stroke-width="3.5" stroke-linecap="round" stroke-linejoin="round"/>
</svg>
