<svg width="50" height="50" viewBox="0 0 50 50" fill="none" xmlns="http://www.w3.org/2000/svg">
<path d="M41.2292 15.3958H36.7917C35.5625 15.3958 34.5833 16.3958 34.5833 17.6042C34.5833 18.8125 35.5833 19.8125 36.7917 19.8125H38.8333L32.0208 26.625C30.625 28.0208 28.1875 28.0208 26.7917 26.625L23.3333 23.1667C20.2708 20.1042 14.9167 20.1042 11.8542 23.1667L4.22917 30.7917C3.35417 31.6667 3.35417 33.0625 4.22917 33.9167C4.66667 34.3542 5.22917 34.5625 5.79167 34.5625C6.35417 34.5625 6.91667 34.3542 7.35417 33.9167L14.9792 26.2917C16.4167 24.8542 18.75 24.8542 20.2083 26.2917L23.6667 29.75C26.8333 32.9167 31.9792 32.9167 35.1458 29.75L41.9583 22.9375V24.9792C41.9583 26.2083 42.9583 27.1875 44.1667 27.1875C45.375 27.1875 46.375 26.1875 46.375 24.9792V20.5417C46.375 17.6875 44.0625 15.375 41.2083 15.375L41.2292 15.3958Z" fill="#693B93"/>
</svg>
