<svg width="500" height="373" viewBox="0 0 500 373" fill="none" xmlns="http://www.w3.org/2000/svg">
<g clip-path="url(#clip0_325_989)">
<path d="M500 327.45H0V327.7H500V327.45Z" fill="#EBEBEB"/>
<path d="M449.9 343.54H416.78V343.79H449.9V343.54Z" fill="#EBEBEB"/>
<path d="M331.22 346.26H322.53V346.51H331.22V346.26Z" fill="#EBEBEB"/>
<path d="M415.78 334.26H396.59V334.51H415.78V334.26Z" fill="#EBEBEB"/>
<path d="M95.65 335.94H52.46V336.19H95.65V335.94Z" fill="#EBEBEB"/>
<path d="M110.89 335.94H104.56V336.19H110.89V335.94Z" fill="#EBEBEB"/>
<path d="M225.15 340.16H131.47V340.41H225.15V340.16Z" fill="#EBEBEB"/>
<path d="M237.01 282.85H43.91C40.76 282.85 38.2 280.29 38.2 277.14V5.71C38.2 2.56 40.76 0 43.91 0H237.01C240.16 0 242.72 2.56 242.72 5.71V277.14C242.72 280.29 240.16 282.85 237.01 282.85ZM43.91 0.25C40.9 0.25 38.45 2.7 38.45 5.71V277.14C38.45 280.15 40.9 282.6 43.91 282.6H237.01C240.02 282.6 242.47 280.15 242.47 277.14V5.71C242.47 2.7 240.02 0.25 237.01 0.25H43.91Z" fill="#EBEBEB"/>
<path d="M453.31 282.85H260.21C257.06 282.85 254.5 280.29 254.5 277.14V5.71C254.5 2.56 257.06 0 260.21 0H453.31C456.46 0 459.02 2.56 459.02 5.71V277.14C459.02 280.29 456.46 282.85 453.31 282.85ZM260.21 0.25C257.2 0.25 254.75 2.7 254.75 5.71V277.14C254.75 280.15 257.2 282.6 260.21 282.6H453.31C456.32 282.6 458.77 280.15 458.77 277.14V5.71C458.77 2.7 456.32 0.25 453.31 0.25H260.21Z" fill="#EBEBEB"/>
<path d="M445.42 62.2202H203.14V295.76H445.42V62.2202Z" fill="#E0E0E0"/>
<path d="M445.42 66.4604H207.03V291.68H445.42V66.4604Z" fill="#F5F5F5"/>
<path d="M208.79 237.14V169.4H215.82V160.45L231.66 153.04V143.89H234.3V169.4H236.94V237.14H240.46V201.95H248.38V183.48H251.02V237.14H257.17V216.91H261.57V211.63H271.25V193.15H276.53V180.84H282.69V162.36H285.33V180.84H291.49V193.15H296.76V211.63H306.44V216.91H310.84V237.14H316.12V211.63H325.8V155.32H328.44V149.16H349.55V155.32H353.95V195.79H371.55V200.19H377.7V202.83H371.55V218.67H390.02V165.88H393.54V155.32H402.34V114.85H404.98V155.32H411.14V165.88H445.42V291.69H207.03V237.14H208.79Z" fill="#E6E6E6"/>
<path d="M427.1 168.64H424.61V171.13H427.1V168.64Z" fill="#F0F0F0"/>
<path d="M427.1 172.82H424.61V175.31H427.1V172.82Z" fill="#F0F0F0"/>
<path d="M427.1 189.53H424.61V192.02H427.1V189.53Z" fill="#F0F0F0"/>
<path d="M427.1 193.71H424.61V196.2H427.1V193.71Z" fill="#F0F0F0"/>
<path d="M427.1 197.89H424.61V200.38H427.1V197.89Z" fill="#F0F0F0"/>
<path d="M427.1 210.43H424.61V212.92H427.1V210.43Z" fill="#F0F0F0"/>
<path d="M427.1 214.61H424.61V217.1H427.1V214.61Z" fill="#F0F0F0"/>
<path d="M423.14 185.35H420.65V187.84H423.14V185.35Z" fill="#F0F0F0"/>
<path d="M423.14 189.53H420.65V192.02H423.14V189.53Z" fill="#F0F0F0"/>
<path d="M423.14 193.71H420.65V196.2H423.14V193.71Z" fill="#F0F0F0"/>
<path d="M423.14 197.89H420.65V200.38H423.14V197.89Z" fill="#F0F0F0"/>
<path d="M423.14 202.07H420.65V204.56H423.14V202.07Z" fill="#F0F0F0"/>
<path d="M423.14 210.43H420.65V212.92H423.14V210.43Z" fill="#F0F0F0"/>
<path d="M423.14 214.61H420.65V217.1H423.14V214.61Z" fill="#F0F0F0"/>
<path d="M419.18 168.64H416.69V171.13H419.18V168.64Z" fill="#F0F0F0"/>
<path d="M419.18 172.82H416.69V175.31H419.18V172.82Z" fill="#F0F0F0"/>
<path d="M419.18 177H416.69V179.49H419.18V177Z" fill="#F0F0F0"/>
<path d="M419.18 181.18H416.69V183.67H419.18V181.18Z" fill="#F0F0F0"/>
<path d="M419.18 185.35H416.69V187.84H419.18V185.35Z" fill="#F0F0F0"/>
<path d="M419.18 189.53H416.69V192.02H419.18V189.53Z" fill="#F0F0F0"/>
<path d="M419.18 193.71H416.69V196.2H419.18V193.71Z" fill="#F0F0F0"/>
<path d="M419.18 197.89H416.69V200.38H419.18V197.89Z" fill="#F0F0F0"/>
<path d="M419.18 202.07H416.69V204.56H419.18V202.07Z" fill="#F0F0F0"/>
<path d="M419.18 206.25H416.69V208.74H419.18V206.25Z" fill="#F0F0F0"/>
<path d="M419.18 214.61H416.69V217.1H419.18V214.61Z" fill="#F0F0F0"/>
<path d="M415.22 168.64H412.73V171.13H415.22V168.64Z" fill="#F0F0F0"/>
<path d="M415.22 172.82H412.73V175.31H415.22V172.82Z" fill="#F0F0F0"/>
<path d="M415.22 177H412.73V179.49H415.22V177Z" fill="#F0F0F0"/>
<path d="M415.22 181.18H412.73V183.67H415.22V181.18Z" fill="#F0F0F0"/>
<path d="M415.22 185.35H412.73V187.84H415.22V185.35Z" fill="#F0F0F0"/>
<path d="M415.22 189.53H412.73V192.02H415.22V189.53Z" fill="#F0F0F0"/>
<path d="M415.22 193.71H412.73V196.2H415.22V193.71Z" fill="#F0F0F0"/>
<path d="M415.22 231.32H412.73V233.81H415.22V231.32Z" fill="#F0F0F0"/>
<path d="M411.26 168.64H408.77V171.13H411.26V168.64Z" fill="#F0F0F0"/>
<path d="M411.26 172.82H408.77V175.31H411.26V172.82Z" fill="#F0F0F0"/>
<path d="M411.26 177H408.77V179.49H411.26V177Z" fill="#F0F0F0"/>
<path d="M411.26 181.18H408.77V183.67H411.26V181.18Z" fill="#F0F0F0"/>
<path d="M411.26 185.35H408.77V187.84H411.26V185.35Z" fill="#F0F0F0"/>
<path d="M411.26 189.53H408.77V192.02H411.26V189.53Z" fill="#F0F0F0"/>
<path d="M411.26 193.71H408.77V196.2H411.26V193.71Z" fill="#F0F0F0"/>
<path d="M411.26 197.89H408.77V200.38H411.26V197.89Z" fill="#F0F0F0"/>
<path d="M411.26 222.97H408.77V225.46H411.26V222.97Z" fill="#F0F0F0"/>
<path d="M411.26 227.14H408.77V229.63H411.26V227.14Z" fill="#F0F0F0"/>
<path d="M411.26 231.32H408.77V233.81H411.26V231.32Z" fill="#F0F0F0"/>
<path d="M411.26 235.5H408.77V237.99H411.26V235.5Z" fill="#F0F0F0"/>
<path d="M411.26 252.22H408.77V254.71H411.26V252.22Z" fill="#F0F0F0"/>
<path d="M407.3 168.64H404.81V171.13H407.3V168.64Z" fill="#F0F0F0"/>
<path d="M407.3 172.82H404.81V175.31H407.3V172.82Z" fill="#F0F0F0"/>
<path d="M407.3 177H404.81V179.49H407.3V177Z" fill="#F0F0F0"/>
<path d="M407.3 181.18H404.81V183.67H407.3V181.18Z" fill="#F0F0F0"/>
<path d="M407.3 185.35H404.81V187.84H407.3V185.35Z" fill="#F0F0F0"/>
<path d="M407.3 189.53H404.81V192.02H407.3V189.53Z" fill="#F0F0F0"/>
<path d="M407.3 193.71H404.81V196.2H407.3V193.71Z" fill="#F0F0F0"/>
<path d="M407.3 197.89H404.81V200.38H407.3V197.89Z" fill="#F0F0F0"/>
<path d="M407.3 202.07H404.81V204.56H407.3V202.07Z" fill="#F0F0F0"/>
<path d="M407.3 206.25H404.81V208.74H407.3V206.25Z" fill="#F0F0F0"/>
<path d="M407.3 218.79H404.81V221.28H407.3V218.79Z" fill="#F0F0F0"/>
<path d="M407.3 222.97H404.81V225.46H407.3V222.97Z" fill="#F0F0F0"/>
<path d="M407.3 227.14H404.81V229.63H407.3V227.14Z" fill="#F0F0F0"/>
<path d="M407.3 231.32H404.81V233.81H407.3V231.32Z" fill="#F0F0F0"/>
<path d="M407.3 235.5H404.81V237.99H407.3V235.5Z" fill="#F0F0F0"/>
<path d="M407.3 252.22H404.81V254.71H407.3V252.22Z" fill="#F0F0F0"/>
<path d="M403.34 168.64H400.85V171.13H403.34V168.64Z" fill="#F0F0F0"/>
<path d="M403.34 172.82H400.85V175.31H403.34V172.82Z" fill="#F0F0F0"/>
<path d="M403.34 177H400.85V179.49H403.34V177Z" fill="#F0F0F0"/>
<path d="M403.34 181.18H400.85V183.67H403.34V181.18Z" fill="#F0F0F0"/>
<path d="M403.34 185.35H400.85V187.84H403.34V185.35Z" fill="#F0F0F0"/>
<path d="M403.34 189.53H400.85V192.02H403.34V189.53Z" fill="#F0F0F0"/>
<path d="M403.34 193.71H400.85V196.2H403.34V193.71Z" fill="#F0F0F0"/>
<path d="M403.34 197.89H400.85V200.38H403.34V197.89Z" fill="#F0F0F0"/>
<path d="M403.34 202.07H400.85V204.56H403.34V202.07Z" fill="#F0F0F0"/>
<path d="M403.34 206.25H400.85V208.74H403.34V206.25Z" fill="#F0F0F0"/>
<path d="M403.34 210.43H400.85V212.92H403.34V210.43Z" fill="#F0F0F0"/>
<path d="M403.34 214.61H400.85V217.1H403.34V214.61Z" fill="#F0F0F0"/>
<path d="M403.34 218.79H400.85V221.28H403.34V218.79Z" fill="#F0F0F0"/>
<path d="M403.34 222.97H400.85V225.46H403.34V222.97Z" fill="#F0F0F0"/>
<path d="M403.34 227.14H400.85V229.63H403.34V227.14Z" fill="#F0F0F0"/>
<path d="M403.34 231.32H400.85V233.81H403.34V231.32Z" fill="#F0F0F0"/>
<path d="M403.34 235.5H400.85V237.99H403.34V235.5Z" fill="#F0F0F0"/>
<path d="M403.34 239.68H400.85V242.17H403.34V239.68Z" fill="#F0F0F0"/>
<path d="M399.38 168.64H396.89V171.13H399.38V168.64Z" fill="#F0F0F0"/>
<path d="M399.38 172.82H396.89V175.31H399.38V172.82Z" fill="#F0F0F0"/>
<path d="M399.38 177H396.89V179.49H399.38V177Z" fill="#F0F0F0"/>
<path d="M399.38 181.18H396.89V183.67H399.38V181.18Z" fill="#F0F0F0"/>
<path d="M399.38 185.35H396.89V187.84H399.38V185.35Z" fill="#F0F0F0"/>
<path d="M399.38 189.53H396.89V192.02H399.38V189.53Z" fill="#F0F0F0"/>
<path d="M399.38 193.71H396.89V196.2H399.38V193.71Z" fill="#F0F0F0"/>
<path d="M399.38 197.89H396.89V200.38H399.38V197.89Z" fill="#F0F0F0"/>
<path d="M399.38 202.07H396.89V204.56H399.38V202.07Z" fill="#F0F0F0"/>
<path d="M399.38 206.25H396.89V208.74H399.38V206.25Z" fill="#F0F0F0"/>
<path d="M399.38 218.79H396.89V221.28H399.38V218.79Z" fill="#F0F0F0"/>
<path d="M399.38 222.97H396.89V225.46H399.38V222.97Z" fill="#F0F0F0"/>
<path d="M399.38 227.14H396.89V229.63H399.38V227.14Z" fill="#F0F0F0"/>
<path d="M399.38 231.32H396.89V233.81H399.38V231.32Z" fill="#F0F0F0"/>
<path d="M395.43 168.64H392.94V171.13H395.43V168.64Z" fill="#F0F0F0"/>
<path d="M395.43 172.82H392.94V175.31H395.43V172.82Z" fill="#F0F0F0"/>
<path d="M395.43 177H392.94V179.49H395.43V177Z" fill="#F0F0F0"/>
<path d="M395.43 181.18H392.94V183.67H395.43V181.18Z" fill="#F0F0F0"/>
<path d="M395.43 185.35H392.94V187.84H395.43V185.35Z" fill="#F0F0F0"/>
<path d="M395.43 189.53H392.94V192.02H395.43V189.53Z" fill="#F0F0F0"/>
<path d="M395.43 193.71H392.94V196.2H395.43V193.71Z" fill="#F0F0F0"/>
<path d="M395.43 197.89H392.94V200.38H395.43V197.89Z" fill="#F0F0F0"/>
<path d="M395.43 202.07H392.94V204.56H395.43V202.07Z" fill="#F0F0F0"/>
<path d="M395.43 206.25H392.94V208.74H395.43V206.25Z" fill="#F0F0F0"/>
<path d="M395.43 218.79H392.94V221.28H395.43V218.79Z" fill="#F0F0F0"/>
<path d="M395.43 222.97H392.94V225.46H395.43V222.97Z" fill="#F0F0F0"/>
<path d="M395.43 227.14H392.94V229.63H395.43V227.14Z" fill="#F0F0F0"/>
<path d="M350.85 157.79H348.36V160.28H350.85V157.79Z" fill="#F0F0F0"/>
<path d="M350.85 161.97H348.36V164.46H350.85V161.97Z" fill="#F0F0F0"/>
<path d="M350.85 166.15H348.36V168.64H350.85V166.15Z" fill="#F0F0F0"/>
<path d="M350.85 170.32H348.36V172.81H350.85V170.32Z" fill="#F0F0F0"/>
<path d="M350.85 174.5H348.36V176.99H350.85V174.5Z" fill="#F0F0F0"/>
<path d="M350.85 178.68H348.36V181.17H350.85V178.68Z" fill="#F0F0F0"/>
<path d="M350.85 182.86H348.36V185.35H350.85V182.86Z" fill="#F0F0F0"/>
<path d="M350.85 187.04H348.36V189.53H350.85V187.04Z" fill="#F0F0F0"/>
<path d="M350.85 199.58H348.36V202.07H350.85V199.58Z" fill="#F0F0F0"/>
<path d="M350.85 203.76H348.36V206.25H350.85V203.76Z" fill="#F0F0F0"/>
<path d="M346.89 157.79H344.4V160.28H346.89V157.79Z" fill="#F0F0F0"/>
<path d="M346.89 161.97H344.4V164.46H346.89V161.97Z" fill="#F0F0F0"/>
<path d="M346.89 166.15H344.4V168.64H346.89V166.15Z" fill="#F0F0F0"/>
<path d="M346.89 170.32H344.4V172.81H346.89V170.32Z" fill="#F0F0F0"/>
<path d="M346.89 174.5H344.4V176.99H346.89V174.5Z" fill="#F0F0F0"/>
<path d="M346.89 178.68H344.4V181.17H346.89V178.68Z" fill="#F0F0F0"/>
<path d="M346.89 182.86H344.4V185.35H346.89V182.86Z" fill="#F0F0F0"/>
<path d="M346.89 187.04H344.4V189.53H346.89V187.04Z" fill="#F0F0F0"/>
<path d="M346.89 203.76H344.4V206.25H346.89V203.76Z" fill="#F0F0F0"/>
<path d="M342.93 157.79H340.44V160.28H342.93V157.79Z" fill="#F0F0F0"/>
<path d="M342.93 161.97H340.44V164.46H342.93V161.97Z" fill="#F0F0F0"/>
<path d="M342.93 166.15H340.44V168.64H342.93V166.15Z" fill="#F0F0F0"/>
<path d="M342.93 170.32H340.44V172.81H342.93V170.32Z" fill="#F0F0F0"/>
<path d="M342.93 174.5H340.44V176.99H342.93V174.5Z" fill="#F0F0F0"/>
<path d="M342.93 178.68H340.44V181.17H342.93V178.68Z" fill="#F0F0F0"/>
<path d="M342.93 182.86H340.44V185.35H342.93V182.86Z" fill="#F0F0F0"/>
<path d="M342.93 187.04H340.44V189.53H342.93V187.04Z" fill="#F0F0F0"/>
<path d="M338.97 157.79H336.48V160.28H338.97V157.79Z" fill="#F0F0F0"/>
<path d="M338.97 161.97H336.48V164.46H338.97V161.97Z" fill="#F0F0F0"/>
<path d="M338.97 166.15H336.48V168.64H338.97V166.15Z" fill="#F0F0F0"/>
<path d="M338.97 170.32H336.48V172.81H338.97V170.32Z" fill="#F0F0F0"/>
<path d="M338.97 174.5H336.48V176.99H338.97V174.5Z" fill="#F0F0F0"/>
<path d="M338.97 178.68H336.48V181.17H338.97V178.68Z" fill="#F0F0F0"/>
<path d="M338.97 187.04H336.48V189.53H338.97V187.04Z" fill="#F0F0F0"/>
<path d="M338.97 191.22H336.48V193.71H338.97V191.22Z" fill="#F0F0F0"/>
<path d="M338.97 203.76H336.48V206.25H338.97V203.76Z" fill="#F0F0F0"/>
<path d="M338.97 207.94H336.48V210.43H338.97V207.94Z" fill="#F0F0F0"/>
<path d="M338.97 212.11H336.48V214.6H338.97V212.11Z" fill="#F0F0F0"/>
<path d="M338.97 216.29H336.48V218.78H338.97V216.29Z" fill="#F0F0F0"/>
<path d="M338.97 220.47H336.48V222.96H338.97V220.47Z" fill="#F0F0F0"/>
<path d="M338.97 224.65H336.48V227.14H338.97V224.65Z" fill="#F0F0F0"/>
<path d="M338.97 228.83H336.48V231.32H338.97V228.83Z" fill="#F0F0F0"/>
<path d="M335.01 157.79H332.52V160.28H335.01V157.79Z" fill="#F0F0F0"/>
<path d="M335.01 161.97H332.52V164.46H335.01V161.97Z" fill="#F0F0F0"/>
<path d="M335.01 166.15H332.52V168.64H335.01V166.15Z" fill="#F0F0F0"/>
<path d="M335.01 170.32H332.52V172.81H335.01V170.32Z" fill="#F0F0F0"/>
<path d="M335.01 174.5H332.52V176.99H335.01V174.5Z" fill="#F0F0F0"/>
<path d="M335.01 178.68H332.52V181.17H335.01V178.68Z" fill="#F0F0F0"/>
<path d="M335.01 191.22H332.52V193.71H335.01V191.22Z" fill="#F0F0F0"/>
<path d="M335.01 195.4H332.52V197.89H335.01V195.4Z" fill="#F0F0F0"/>
<path d="M335.01 199.58H332.52V202.07H335.01V199.58Z" fill="#F0F0F0"/>
<path d="M335.01 203.76H332.52V206.25H335.01V203.76Z" fill="#F0F0F0"/>
<path d="M335.01 207.94H332.52V210.43H335.01V207.94Z" fill="#F0F0F0"/>
<path d="M335.01 212.11H332.52V214.6H335.01V212.11Z" fill="#F0F0F0"/>
<path d="M335.01 216.29H332.52V218.78H335.01V216.29Z" fill="#F0F0F0"/>
<path d="M335.01 220.47H332.52V222.96H335.01V220.47Z" fill="#F0F0F0"/>
<path d="M335.01 224.65H332.52V227.14H335.01V224.65Z" fill="#F0F0F0"/>
<path d="M335.01 228.83H332.52V231.32H335.01V228.83Z" fill="#F0F0F0"/>
<path d="M335.01 233.01H332.52V235.5H335.01V233.01Z" fill="#F0F0F0"/>
<path d="M335.01 241.37H332.52V243.86H335.01V241.37Z" fill="#F0F0F0"/>
<path d="M331.05 157.79H328.56V160.28H331.05V157.79Z" fill="#F0F0F0"/>
<path d="M331.05 161.97H328.56V164.46H331.05V161.97Z" fill="#F0F0F0"/>
<path d="M331.05 166.15H328.56V168.64H331.05V166.15Z" fill="#F0F0F0"/>
<path d="M331.05 170.32H328.56V172.81H331.05V170.32Z" fill="#F0F0F0"/>
<path d="M331.05 174.5H328.56V176.99H331.05V174.5Z" fill="#F0F0F0"/>
<path d="M331.05 178.68H328.56V181.17H331.05V178.68Z" fill="#F0F0F0"/>
<path d="M331.05 191.22H328.56V193.71H331.05V191.22Z" fill="#F0F0F0"/>
<path d="M331.05 195.4H328.56V197.89H331.05V195.4Z" fill="#F0F0F0"/>
<path d="M331.05 199.58H328.56V202.07H331.05V199.58Z" fill="#F0F0F0"/>
<path d="M331.05 203.76H328.56V206.25H331.05V203.76Z" fill="#F0F0F0"/>
<path d="M331.05 216.29H328.56V218.78H331.05V216.29Z" fill="#F0F0F0"/>
<path d="M331.05 220.47H328.56V222.96H331.05V220.47Z" fill="#F0F0F0"/>
<path d="M331.05 224.65H328.56V227.14H331.05V224.65Z" fill="#F0F0F0"/>
<path d="M331.05 228.83H328.56V231.32H331.05V228.83Z" fill="#F0F0F0"/>
<path d="M331.05 233.01H328.56V235.5H331.05V233.01Z" fill="#F0F0F0"/>
<path d="M331.05 241.37H328.56V243.86H331.05V241.37Z" fill="#F0F0F0"/>
<path d="M331.05 245.55H328.56V248.04H331.05V245.55Z" fill="#F0F0F0"/>
<path d="M295.13 196.64H292.64V199.13H295.13V196.64Z" fill="#F0F0F0"/>
<path d="M295.13 200.82H292.64V203.31H295.13V200.82Z" fill="#F0F0F0"/>
<path d="M295.13 205H292.64V207.49H295.13V205Z" fill="#F0F0F0"/>
<path d="M295.13 209.18H292.64V211.67H295.13V209.18Z" fill="#F0F0F0"/>
<path d="M295.13 213.36H292.64V215.85H295.13V213.36Z" fill="#F0F0F0"/>
<path d="M295.13 217.54H292.64V220.03H295.13V217.54Z" fill="#F0F0F0"/>
<path d="M295.13 221.72H292.64V224.21H295.13V221.72Z" fill="#F0F0F0"/>
<path d="M295.13 234.26H292.64V236.75H295.13V234.26Z" fill="#F0F0F0"/>
<path d="M295.13 238.43H292.64V240.92H295.13V238.43Z" fill="#F0F0F0"/>
<path d="M295.13 242.61H292.64V245.1H295.13V242.61Z" fill="#F0F0F0"/>
<path d="M291.17 196.64H288.68V199.13H291.17V196.64Z" fill="#F0F0F0"/>
<path d="M291.17 200.82H288.68V203.31H291.17V200.82Z" fill="#F0F0F0"/>
<path d="M291.17 205H288.68V207.49H291.17V205Z" fill="#F0F0F0"/>
<path d="M291.17 209.18H288.68V211.67H291.17V209.18Z" fill="#F0F0F0"/>
<path d="M291.17 213.36H288.68V215.85H291.17V213.36Z" fill="#F0F0F0"/>
<path d="M291.17 217.54H288.68V220.03H291.17V217.54Z" fill="#F0F0F0"/>
<path d="M291.17 221.72H288.68V224.21H291.17V221.72Z" fill="#F0F0F0"/>
<path d="M287.21 196.64H284.72V199.13H287.21V196.64Z" fill="#F0F0F0"/>
<path d="M287.21 200.82H284.72V203.31H287.21V200.82Z" fill="#F0F0F0"/>
<path d="M287.21 205H284.72V207.49H287.21V205Z" fill="#F0F0F0"/>
<path d="M287.21 209.18H284.72V211.67H287.21V209.18Z" fill="#F0F0F0"/>
<path d="M287.21 213.36H284.72V215.85H287.21V213.36Z" fill="#F0F0F0"/>
<path d="M287.21 217.54H284.72V220.03H287.21V217.54Z" fill="#F0F0F0"/>
<path d="M287.21 221.72H284.72V224.21H287.21V221.72Z" fill="#F0F0F0"/>
<path d="M283.25 196.64H280.76V199.13H283.25V196.64Z" fill="#F0F0F0"/>
<path d="M283.25 200.82H280.76V203.31H283.25V200.82Z" fill="#F0F0F0"/>
<path d="M283.25 205H280.76V207.49H283.25V205Z" fill="#F0F0F0"/>
<path d="M283.25 209.18H280.76V211.67H283.25V209.18Z" fill="#F0F0F0"/>
<path d="M283.25 213.36H280.76V215.85H283.25V213.36Z" fill="#F0F0F0"/>
<path d="M283.25 217.54H280.76V220.03H283.25V217.54Z" fill="#F0F0F0"/>
<path d="M283.25 221.72H280.76V224.21H283.25V221.72Z" fill="#F0F0F0"/>
<path d="M283.25 225.9H280.76V228.39H283.25V225.9Z" fill="#F0F0F0"/>
<path d="M283.25 230.08H280.76V232.57H283.25V230.08Z" fill="#F0F0F0"/>
<path d="M283.25 234.26H280.76V236.75H283.25V234.26Z" fill="#F0F0F0"/>
<path d="M283.25 238.43H280.76V240.92H283.25V238.43Z" fill="#F0F0F0"/>
<path d="M279.29 196.64H276.8V199.13H279.29V196.64Z" fill="#F0F0F0"/>
<path d="M279.29 200.82H276.8V203.31H279.29V200.82Z" fill="#F0F0F0"/>
<path d="M279.29 205H276.8V207.49H279.29V205Z" fill="#F0F0F0"/>
<path d="M279.29 209.18H276.8V211.67H279.29V209.18Z" fill="#F0F0F0"/>
<path d="M279.29 213.36H276.8V215.85H279.29V213.36Z" fill="#F0F0F0"/>
<path d="M279.29 217.54H276.8V220.03H279.29V217.54Z" fill="#F0F0F0"/>
<path d="M279.29 221.72H276.8V224.21H279.29V221.72Z" fill="#F0F0F0"/>
<path d="M279.29 225.9H276.8V228.39H279.29V225.9Z" fill="#F0F0F0"/>
<path d="M279.29 230.08H276.8V232.57H279.29V230.08Z" fill="#F0F0F0"/>
<path d="M279.29 234.26H276.8V236.75H279.29V234.26Z" fill="#F0F0F0"/>
<path d="M279.29 238.43H276.8V240.92H279.29V238.43Z" fill="#F0F0F0"/>
<path d="M279.29 242.61H276.8V245.1H279.29V242.61Z" fill="#F0F0F0"/>
<path d="M279.29 255.15H276.8V257.64H279.29V255.15Z" fill="#F0F0F0"/>
<path d="M279.29 259.33H276.8V261.82H279.29V259.33Z" fill="#F0F0F0"/>
<path d="M275.33 196.64H272.84V199.13H275.33V196.64Z" fill="#F0F0F0"/>
<path d="M275.33 200.82H272.84V203.31H275.33V200.82Z" fill="#F0F0F0"/>
<path d="M275.33 205H272.84V207.49H275.33V205Z" fill="#F0F0F0"/>
<path d="M275.33 217.54H272.84V220.03H275.33V217.54Z" fill="#F0F0F0"/>
<path d="M275.33 221.72H272.84V224.21H275.33V221.72Z" fill="#F0F0F0"/>
<path d="M275.33 225.9H272.84V228.39H275.33V225.9Z" fill="#F0F0F0"/>
<path d="M275.33 230.08H272.84V232.57H275.33V230.08Z" fill="#F0F0F0"/>
<path d="M275.33 234.26H272.84V236.75H275.33V234.26Z" fill="#F0F0F0"/>
<path d="M275.33 238.43H272.84V240.92H275.33V238.43Z" fill="#F0F0F0"/>
<path d="M275.33 242.61H272.84V245.1H275.33V242.61Z" fill="#F0F0F0"/>
<path d="M275.33 255.15H272.84V257.64H275.33V255.15Z" fill="#F0F0F0"/>
<path d="M275.33 259.33H272.84V261.82H275.33V259.33Z" fill="#F0F0F0"/>
<path d="M275.33 263.51H272.84V266H275.33V263.51Z" fill="#F0F0F0"/>
<path d="M233.84 171.57H231.35V174.06H233.84V171.57Z" fill="#F0F0F0"/>
<path d="M233.84 175.75H231.35V178.24H233.84V175.75Z" fill="#F0F0F0"/>
<path d="M233.84 179.93H231.35V182.42H233.84V179.93Z" fill="#F0F0F0"/>
<path d="M233.84 184.11H231.35V186.6H233.84V184.11Z" fill="#F0F0F0"/>
<path d="M233.84 188.29H231.35V190.78H233.84V188.29Z" fill="#F0F0F0"/>
<path d="M233.84 192.47H231.35V194.96H233.84V192.47Z" fill="#F0F0F0"/>
<path d="M233.84 196.64H231.35V199.13H233.84V196.64Z" fill="#F0F0F0"/>
<path d="M233.84 200.82H231.35V203.31H233.84V200.82Z" fill="#F0F0F0"/>
<path d="M233.84 205H231.35V207.49H233.84V205Z" fill="#F0F0F0"/>
<path d="M233.84 209.18H231.35V211.67H233.84V209.18Z" fill="#F0F0F0"/>
<path d="M233.84 213.36H231.35V215.85H233.84V213.36Z" fill="#F0F0F0"/>
<path d="M233.84 217.54H231.35V220.03H233.84V217.54Z" fill="#F0F0F0"/>
<path d="M233.84 221.72H231.35V224.21H233.84V221.72Z" fill="#F0F0F0"/>
<path d="M233.84 225.9H231.35V228.39H233.84V225.9Z" fill="#F0F0F0"/>
<path d="M233.84 230.08H231.35V232.57H233.84V230.08Z" fill="#F0F0F0"/>
<path d="M233.84 234.26H231.35V236.75H233.84V234.26Z" fill="#F0F0F0"/>
<path d="M233.84 238.43H231.35V240.92H233.84V238.43Z" fill="#F0F0F0"/>
<path d="M233.84 242.61H231.35V245.1H233.84V242.61Z" fill="#F0F0F0"/>
<path d="M233.84 246.79H231.35V249.28H233.84V246.79Z" fill="#F0F0F0"/>
<path d="M233.84 250.97H231.35V253.46H233.84V250.97Z" fill="#F0F0F0"/>
<path d="M233.84 255.15H231.35V257.64H233.84V255.15Z" fill="#F0F0F0"/>
<path d="M233.84 259.33H231.35V261.82H233.84V259.33Z" fill="#F0F0F0"/>
<path d="M233.84 263.51H231.35V266H233.84V263.51Z" fill="#F0F0F0"/>
<path d="M229.88 171.57H227.39V174.06H229.88V171.57Z" fill="#F0F0F0"/>
<path d="M229.88 175.75H227.39V178.24H229.88V175.75Z" fill="#F0F0F0"/>
<path d="M229.88 179.93H227.39V182.42H229.88V179.93Z" fill="#F0F0F0"/>
<path d="M229.88 184.11H227.39V186.6H229.88V184.11Z" fill="#F0F0F0"/>
<path d="M229.88 188.29H227.39V190.78H229.88V188.29Z" fill="#F0F0F0"/>
<path d="M229.88 192.47H227.39V194.96H229.88V192.47Z" fill="#F0F0F0"/>
<path d="M229.88 196.64H227.39V199.13H229.88V196.64Z" fill="#F0F0F0"/>
<path d="M229.88 200.82H227.39V203.31H229.88V200.82Z" fill="#F0F0F0"/>
<path d="M229.88 205H227.39V207.49H229.88V205Z" fill="#F0F0F0"/>
<path d="M229.88 209.18H227.39V211.67H229.88V209.18Z" fill="#F0F0F0"/>
<path d="M229.88 213.36H227.39V215.85H229.88V213.36Z" fill="#F0F0F0"/>
<path d="M229.88 217.54H227.39V220.03H229.88V217.54Z" fill="#F0F0F0"/>
<path d="M229.88 221.72H227.39V224.21H229.88V221.72Z" fill="#F0F0F0"/>
<path d="M229.88 225.9H227.39V228.39H229.88V225.9Z" fill="#F0F0F0"/>
<path d="M229.88 230.08H227.39V232.57H229.88V230.08Z" fill="#F0F0F0"/>
<path d="M229.88 234.26H227.39V236.75H229.88V234.26Z" fill="#F0F0F0"/>
<path d="M229.88 238.43H227.39V240.92H229.88V238.43Z" fill="#F0F0F0"/>
<path d="M229.88 242.61H227.39V245.1H229.88V242.61Z" fill="#F0F0F0"/>
<path d="M229.88 246.79H227.39V249.28H229.88V246.79Z" fill="#F0F0F0"/>
<path d="M225.92 171.57H223.43V174.06H225.92V171.57Z" fill="#F0F0F0"/>
<path d="M225.92 175.75H223.43V178.24H225.92V175.75Z" fill="#F0F0F0"/>
<path d="M225.92 179.93H223.43V182.42H225.92V179.93Z" fill="#F0F0F0"/>
<path d="M225.92 184.11H223.43V186.6H225.92V184.11Z" fill="#F0F0F0"/>
<path d="M225.92 188.29H223.43V190.78H225.92V188.29Z" fill="#F0F0F0"/>
<path d="M225.92 192.47H223.43V194.96H225.92V192.47Z" fill="#F0F0F0"/>
<path d="M225.92 196.64H223.43V199.13H225.92V196.64Z" fill="#F0F0F0"/>
<path d="M225.92 200.82H223.43V203.31H225.92V200.82Z" fill="#F0F0F0"/>
<path d="M225.92 205H223.43V207.49H225.92V205Z" fill="#F0F0F0"/>
<path d="M225.92 209.18H223.43V211.67H225.92V209.18Z" fill="#F0F0F0"/>
<path d="M225.92 213.36H223.43V215.85H225.92V213.36Z" fill="#F0F0F0"/>
<path d="M225.92 217.54H223.43V220.03H225.92V217.54Z" fill="#F0F0F0"/>
<path d="M225.92 221.72H223.43V224.21H225.92V221.72Z" fill="#F0F0F0"/>
<path d="M225.92 225.9H223.43V228.39H225.92V225.9Z" fill="#F0F0F0"/>
<path d="M225.92 230.08H223.43V232.57H225.92V230.08Z" fill="#F0F0F0"/>
<path d="M225.92 234.26H223.43V236.75H225.92V234.26Z" fill="#F0F0F0"/>
<path d="M225.92 238.43H223.43V240.92H225.92V238.43Z" fill="#F0F0F0"/>
<path d="M225.92 242.61H223.43V245.1H225.92V242.61Z" fill="#F0F0F0"/>
<path d="M225.92 246.79H223.43V249.28H225.92V246.79Z" fill="#F0F0F0"/>
<path d="M221.96 171.57H219.47V174.06H221.96V171.57Z" fill="#F0F0F0"/>
<path d="M221.96 175.75H219.47V178.24H221.96V175.75Z" fill="#F0F0F0"/>
<path d="M221.96 179.93H219.47V182.42H221.96V179.93Z" fill="#F0F0F0"/>
<path d="M221.96 184.11H219.47V186.6H221.96V184.11Z" fill="#F0F0F0"/>
<path d="M221.96 188.29H219.47V190.78H221.96V188.29Z" fill="#F0F0F0"/>
<path d="M221.96 192.47H219.47V194.96H221.96V192.47Z" fill="#F0F0F0"/>
<path d="M221.96 196.64H219.47V199.13H221.96V196.64Z" fill="#F0F0F0"/>
<path d="M221.96 200.82H219.47V203.31H221.96V200.82Z" fill="#F0F0F0"/>
<path d="M221.96 205H219.47V207.49H221.96V205Z" fill="#F0F0F0"/>
<path d="M221.96 209.18H219.47V211.67H221.96V209.18Z" fill="#F0F0F0"/>
<path d="M221.96 213.36H219.47V215.85H221.96V213.36Z" fill="#F0F0F0"/>
<path d="M221.96 217.54H219.47V220.03H221.96V217.54Z" fill="#F0F0F0"/>
<path d="M221.96 221.72H219.47V224.21H221.96V221.72Z" fill="#F0F0F0"/>
<path d="M221.96 225.9H219.47V228.39H221.96V225.9Z" fill="#F0F0F0"/>
<path d="M221.96 230.08H219.47V232.57H221.96V230.08Z" fill="#F0F0F0"/>
<path d="M218 171.57H215.51V174.06H218V171.57Z" fill="#F0F0F0"/>
<path d="M218 175.75H215.51V178.24H218V175.75Z" fill="#F0F0F0"/>
<path d="M218 179.93H215.51V182.42H218V179.93Z" fill="#F0F0F0"/>
<path d="M218 184.11H215.51V186.6H218V184.11Z" fill="#F0F0F0"/>
<path d="M218 188.29H215.51V190.78H218V188.29Z" fill="#F0F0F0"/>
<path d="M218 192.47H215.51V194.96H218V192.47Z" fill="#F0F0F0"/>
<path d="M218 196.64H215.51V199.13H218V196.64Z" fill="#F0F0F0"/>
<path d="M218 200.82H215.51V203.31H218V200.82Z" fill="#F0F0F0"/>
<path d="M218 205H215.51V207.49H218V205Z" fill="#F0F0F0"/>
<path d="M218 209.18H215.51V211.67H218V209.18Z" fill="#F0F0F0"/>
<path d="M218 213.36H215.51V215.85H218V213.36Z" fill="#F0F0F0"/>
<path d="M218 217.54H215.51V220.03H218V217.54Z" fill="#F0F0F0"/>
<path d="M218 221.72H215.51V224.21H218V221.72Z" fill="#F0F0F0"/>
<path d="M214.04 171.57H211.55V174.06H214.04V171.57Z" fill="#F0F0F0"/>
<path d="M214.04 175.75H211.55V178.24H214.04V175.75Z" fill="#F0F0F0"/>
<path d="M214.04 179.93H211.55V182.42H214.04V179.93Z" fill="#F0F0F0"/>
<path d="M214.04 184.11H211.55V186.6H214.04V184.11Z" fill="#F0F0F0"/>
<path d="M214.04 188.29H211.55V190.78H214.04V188.29Z" fill="#F0F0F0"/>
<path d="M214.04 192.47H211.55V194.96H214.04V192.47Z" fill="#F0F0F0"/>
<path d="M214.04 196.64H211.55V199.13H214.04V196.64Z" fill="#F0F0F0"/>
<path d="M214.04 200.82H211.55V203.31H214.04V200.82Z" fill="#F0F0F0"/>
<path d="M214.04 205H211.55V207.49H214.04V205Z" fill="#F0F0F0"/>
<path d="M214.04 209.18H211.55V211.67H214.04V209.18Z" fill="#F0F0F0"/>
<path d="M214.04 213.36H211.55V215.85H214.04V213.36Z" fill="#F0F0F0"/>
<path d="M214.04 217.54H211.55V220.03H214.04V217.54Z" fill="#F0F0F0"/>
<path d="M445.13 170.32H442.64V172.81H445.13V170.32Z" fill="#F0F0F0"/>
<path d="M445.13 174.5H442.64V176.99H445.13V174.5Z" fill="#F0F0F0"/>
<path d="M445.13 178.68H442.64V181.17H445.13V178.68Z" fill="#F0F0F0"/>
<path d="M445.13 182.86H442.64V185.35H445.13V182.86Z" fill="#F0F0F0"/>
<path d="M445.13 187.04H442.64V189.53H445.13V187.04Z" fill="#F0F0F0"/>
<path d="M445.13 191.22H442.64V193.71H445.13V191.22Z" fill="#F0F0F0"/>
<path d="M445.13 195.4H442.64V197.89H445.13V195.4Z" fill="#F0F0F0"/>
<path d="M445.13 199.58H442.64V202.07H445.13V199.58Z" fill="#F0F0F0"/>
<path d="M445.13 203.76H442.64V206.25H445.13V203.76Z" fill="#F0F0F0"/>
<path d="M445.13 207.94H442.64V210.43H445.13V207.94Z" fill="#F0F0F0"/>
<path d="M445.13 212.11H442.64V214.6H445.13V212.11Z" fill="#F0F0F0"/>
<path d="M445.13 216.29H442.64V218.78H445.13V216.29Z" fill="#F0F0F0"/>
<path d="M445.13 220.47H442.64V222.96H445.13V220.47Z" fill="#F0F0F0"/>
<path d="M445.13 224.65H442.64V227.14H445.13V224.65Z" fill="#F0F0F0"/>
<path d="M445.13 228.83H442.64V231.32H445.13V228.83Z" fill="#F0F0F0"/>
<path d="M445.13 233.01H442.64V235.5H445.13V233.01Z" fill="#F0F0F0"/>
<path d="M445.13 237.19H442.64V239.68H445.13V237.19Z" fill="#F0F0F0"/>
<path d="M445.13 245.55H442.64V248.04H445.13V245.55Z" fill="#F0F0F0"/>
<path d="M445.13 249.73H442.64V252.22H445.13V249.73Z" fill="#F0F0F0"/>
<path d="M445.13 253.9H442.64V256.39H445.13V253.9Z" fill="#F0F0F0"/>
<path d="M445.13 258.08H442.64V260.57H445.13V258.08Z" fill="#F0F0F0"/>
<path d="M445.13 262.26H442.64V264.75H445.13V262.26Z" fill="#F0F0F0"/>
<path d="M441.17 170.32H438.68V172.81H441.17V170.32Z" fill="#F0F0F0"/>
<path d="M441.17 174.5H438.68V176.99H441.17V174.5Z" fill="#F0F0F0"/>
<path d="M441.17 178.68H438.68V181.17H441.17V178.68Z" fill="#F0F0F0"/>
<path d="M441.17 182.86H438.68V185.35H441.17V182.86Z" fill="#F0F0F0"/>
<path d="M441.17 187.04H438.68V189.53H441.17V187.04Z" fill="#F0F0F0"/>
<path d="M441.17 191.22H438.68V193.71H441.17V191.22Z" fill="#F0F0F0"/>
<path d="M441.17 195.4H438.68V197.89H441.17V195.4Z" fill="#F0F0F0"/>
<path d="M441.17 199.58H438.68V202.07H441.17V199.58Z" fill="#F0F0F0"/>
<path d="M441.17 203.76H438.68V206.25H441.17V203.76Z" fill="#F0F0F0"/>
<path d="M441.17 207.94H438.68V210.43H441.17V207.94Z" fill="#F0F0F0"/>
<path d="M441.17 212.11H438.68V214.6H441.17V212.11Z" fill="#F0F0F0"/>
<path d="M441.17 216.29H438.68V218.78H441.17V216.29Z" fill="#F0F0F0"/>
<path d="M441.17 220.47H438.68V222.96H441.17V220.47Z" fill="#F0F0F0"/>
<path d="M441.17 224.65H438.68V227.14H441.17V224.65Z" fill="#F0F0F0"/>
<path d="M441.17 228.83H438.68V231.32H441.17V228.83Z" fill="#F0F0F0"/>
<path d="M441.17 233.01H438.68V235.5H441.17V233.01Z" fill="#F0F0F0"/>
<path d="M441.17 258.08H438.68V260.57H441.17V258.08Z" fill="#F0F0F0"/>
<path d="M441.17 262.26H438.68V264.75H441.17V262.26Z" fill="#F0F0F0"/>
<path d="M437.22 170.32H434.73V172.81H437.22V170.32Z" fill="#F0F0F0"/>
<path d="M437.22 174.5H434.73V176.99H437.22V174.5Z" fill="#F0F0F0"/>
<path d="M437.22 178.68H434.73V181.17H437.22V178.68Z" fill="#F0F0F0"/>
<path d="M437.22 182.86H434.73V185.35H437.22V182.86Z" fill="#F0F0F0"/>
<path d="M437.22 187.04H434.73V189.53H437.22V187.04Z" fill="#F0F0F0"/>
<path d="M437.22 191.22H434.73V193.71H437.22V191.22Z" fill="#F0F0F0"/>
<path d="M437.22 195.4H434.73V197.89H437.22V195.4Z" fill="#F0F0F0"/>
<path d="M437.22 199.58H434.73V202.07H437.22V199.58Z" fill="#F0F0F0"/>
<path d="M437.22 203.76H434.73V206.25H437.22V203.76Z" fill="#F0F0F0"/>
<path d="M437.22 207.94H434.73V210.43H437.22V207.94Z" fill="#F0F0F0"/>
<path d="M437.22 212.11H434.73V214.6H437.22V212.11Z" fill="#F0F0F0"/>
<path d="M437.22 216.29H434.73V218.78H437.22V216.29Z" fill="#F0F0F0"/>
<path d="M437.22 220.47H434.73V222.96H437.22V220.47Z" fill="#F0F0F0"/>
<path d="M437.22 224.65H434.73V227.14H437.22V224.65Z" fill="#F0F0F0"/>
<path d="M437.22 228.83H434.73V231.32H437.22V228.83Z" fill="#F0F0F0"/>
<path d="M437.22 233.01H434.73V235.5H437.22V233.01Z" fill="#F0F0F0"/>
<path d="M437.22 241.37H434.73V243.86H437.22V241.37Z" fill="#F0F0F0"/>
<path d="M437.22 245.55H434.73V248.04H437.22V245.55Z" fill="#F0F0F0"/>
<path d="M437.22 249.73H434.73V252.22H437.22V249.73Z" fill="#F0F0F0"/>
<path d="M437.22 253.9H434.73V256.39H437.22V253.9Z" fill="#F0F0F0"/>
<path d="M437.22 262.26H434.73V264.75H437.22V262.26Z" fill="#F0F0F0"/>
<path d="M368.15 199.58H365.66V202.07H368.15V199.58Z" fill="#F0F0F0"/>
<path d="M368.15 203.76H365.66V206.25H368.15V203.76Z" fill="#F0F0F0"/>
<path d="M368.15 207.94H365.66V210.43H368.15V207.94Z" fill="#F0F0F0"/>
<path d="M368.15 212.11H365.66V214.6H368.15V212.11Z" fill="#F0F0F0"/>
<path d="M368.15 216.29H365.66V218.78H368.15V216.29Z" fill="#F0F0F0"/>
<path d="M368.15 220.47H365.66V222.96H368.15V220.47Z" fill="#F0F0F0"/>
<path d="M368.15 224.65H365.66V227.14H368.15V224.65Z" fill="#F0F0F0"/>
<path d="M368.15 228.83H365.66V231.32H368.15V228.83Z" fill="#F0F0F0"/>
<path d="M368.15 233.01H365.66V235.5H368.15V233.01Z" fill="#F0F0F0"/>
<path d="M368.15 237.19H365.66V239.68H368.15V237.19Z" fill="#F0F0F0"/>
<path d="M368.15 241.37H365.66V243.86H368.15V241.37Z" fill="#F0F0F0"/>
<path d="M368.15 245.55H365.66V248.04H368.15V245.55Z" fill="#F0F0F0"/>
<path d="M368.15 249.73H365.66V252.22H368.15V249.73Z" fill="#F0F0F0"/>
<path d="M368.15 258.08H365.66V260.57H368.15V258.08Z" fill="#F0F0F0"/>
<path d="M368.15 262.26H365.66V264.75H368.15V262.26Z" fill="#F0F0F0"/>
<path d="M368.15 266.44H365.66V268.93H368.15V266.44Z" fill="#F0F0F0"/>
<path d="M368.15 270.62H365.66V273.11H368.15V270.62Z" fill="#F0F0F0"/>
<path d="M368.15 278.98H365.66V281.47H368.15V278.98Z" fill="#F0F0F0"/>
<path d="M368.15 283.16H365.66V285.65H368.15V283.16Z" fill="#F0F0F0"/>
<path d="M368.15 287.34H365.66V289.83H368.15V287.34Z" fill="#F0F0F0"/>
<path d="M364.19 199.58H361.7V202.07H364.19V199.58Z" fill="#F0F0F0"/>
<path d="M364.19 203.76H361.7V206.25H364.19V203.76Z" fill="#F0F0F0"/>
<path d="M364.19 207.94H361.7V210.43H364.19V207.94Z" fill="#F0F0F0"/>
<path d="M364.19 212.11H361.7V214.6H364.19V212.11Z" fill="#F0F0F0"/>
<path d="M364.19 216.29H361.7V218.78H364.19V216.29Z" fill="#F0F0F0"/>
<path d="M364.19 220.47H361.7V222.96H364.19V220.47Z" fill="#F0F0F0"/>
<path d="M364.19 224.65H361.7V227.14H364.19V224.65Z" fill="#F0F0F0"/>
<path d="M364.19 228.83H361.7V231.32H364.19V228.83Z" fill="#F0F0F0"/>
<path d="M364.19 233.01H361.7V235.5H364.19V233.01Z" fill="#F0F0F0"/>
<path d="M364.19 237.19H361.7V239.68H364.19V237.19Z" fill="#F0F0F0"/>
<path d="M364.19 241.37H361.7V243.86H364.19V241.37Z" fill="#F0F0F0"/>
<path d="M364.19 245.55H361.7V248.04H364.19V245.55Z" fill="#F0F0F0"/>
<path d="M364.19 249.73H361.7V252.22H364.19V249.73Z" fill="#F0F0F0"/>
<path d="M364.19 262.26H361.7V264.75H364.19V262.26Z" fill="#F0F0F0"/>
<path d="M364.19 266.44H361.7V268.93H364.19V266.44Z" fill="#F0F0F0"/>
<path d="M364.19 274.8H361.7V277.29H364.19V274.8Z" fill="#F0F0F0"/>
<path d="M364.19 278.98H361.7V281.47H364.19V278.98Z" fill="#F0F0F0"/>
<path d="M364.19 283.16H361.7V285.65H364.19V283.16Z" fill="#F0F0F0"/>
<path d="M364.19 287.34H361.7V289.83H364.19V287.34Z" fill="#F0F0F0"/>
<path d="M360.23 199.58H357.74V202.07H360.23V199.58Z" fill="#F0F0F0"/>
<path d="M360.23 203.76H357.74V206.25H360.23V203.76Z" fill="#F0F0F0"/>
<path d="M360.23 207.94H357.74V210.43H360.23V207.94Z" fill="#F0F0F0"/>
<path d="M360.23 212.11H357.74V214.6H360.23V212.11Z" fill="#F0F0F0"/>
<path d="M360.23 216.29H357.74V218.78H360.23V216.29Z" fill="#F0F0F0"/>
<path d="M360.23 220.47H357.74V222.96H360.23V220.47Z" fill="#F0F0F0"/>
<path d="M360.23 224.65H357.74V227.14H360.23V224.65Z" fill="#F0F0F0"/>
<path d="M360.23 228.83H357.74V231.32H360.23V228.83Z" fill="#F0F0F0"/>
<path d="M360.23 233.01H357.74V235.5H360.23V233.01Z" fill="#F0F0F0"/>
<path d="M360.23 237.19H357.74V239.68H360.23V237.19Z" fill="#F0F0F0"/>
<path d="M360.23 241.37H357.74V243.86H360.23V241.37Z" fill="#F0F0F0"/>
<path d="M360.23 245.55H357.74V248.04H360.23V245.55Z" fill="#F0F0F0"/>
<path d="M360.23 249.73H357.74V252.22H360.23V249.73Z" fill="#F0F0F0"/>
<path d="M360.23 253.9H357.74V256.39H360.23V253.9Z" fill="#F0F0F0"/>
<path d="M360.23 262.26H357.74V264.75H360.23V262.26Z" fill="#F0F0F0"/>
<path d="M360.23 270.62H357.74V273.11H360.23V270.62Z" fill="#F0F0F0"/>
<path d="M360.23 274.8H357.74V277.29H360.23V274.8Z" fill="#F0F0F0"/>
<path d="M360.23 278.98H357.74V281.47H360.23V278.98Z" fill="#F0F0F0"/>
<path d="M360.23 283.16H357.74V285.65H360.23V283.16Z" fill="#F0F0F0"/>
<path d="M360.23 287.34H357.74V289.83H360.23V287.34Z" fill="#F0F0F0"/>
<path d="M384.28 223.41H381.79V225.9H384.28V223.41Z" fill="#F0F0F0"/>
<path d="M384.28 227.58H381.79V230.07H384.28V227.58Z" fill="#F0F0F0"/>
<path d="M384.28 231.76H381.79V234.25H384.28V231.76Z" fill="#F0F0F0"/>
<path d="M384.28 235.94H381.79V238.43H384.28V235.94Z" fill="#F0F0F0"/>
<path d="M384.28 240.12H381.79V242.61H384.28V240.12Z" fill="#F0F0F0"/>
<path d="M384.28 244.3H381.79V246.79H384.28V244.3Z" fill="#F0F0F0"/>
<path d="M384.28 256.84H381.79V259.33H384.28V256.84Z" fill="#F0F0F0"/>
<path d="M384.28 261.02H381.79V263.51H384.28V261.02Z" fill="#F0F0F0"/>
<path d="M384.28 265.19H381.79V267.68H384.28V265.19Z" fill="#F0F0F0"/>
<path d="M384.28 269.37H381.79V271.86H384.28V269.37Z" fill="#F0F0F0"/>
<path d="M384.28 273.55H381.79V276.04H384.28V273.55Z" fill="#F0F0F0"/>
<path d="M384.28 277.73H381.79V280.22H384.28V277.73Z" fill="#F0F0F0"/>
<path d="M384.28 281.91H381.79V284.4H384.28V281.91Z" fill="#F0F0F0"/>
<path d="M380.32 223.41H377.83V225.9H380.32V223.41Z" fill="#F0F0F0"/>
<path d="M380.32 227.58H377.83V230.07H380.32V227.58Z" fill="#F0F0F0"/>
<path d="M380.32 231.76H377.83V234.25H380.32V231.76Z" fill="#F0F0F0"/>
<path d="M380.32 235.94H377.83V238.43H380.32V235.94Z" fill="#F0F0F0"/>
<path d="M380.32 240.12H377.83V242.61H380.32V240.12Z" fill="#F0F0F0"/>
<path d="M380.32 244.3H377.83V246.79H380.32V244.3Z" fill="#F0F0F0"/>
<path d="M380.32 256.84H377.83V259.33H380.32V256.84Z" fill="#F0F0F0"/>
<path d="M380.32 261.02H377.83V263.51H380.32V261.02Z" fill="#F0F0F0"/>
<path d="M380.32 265.19H377.83V267.68H380.32V265.19Z" fill="#F0F0F0"/>
<path d="M380.32 269.37H377.83V271.86H380.32V269.37Z" fill="#F0F0F0"/>
<path d="M380.32 273.55H377.83V276.04H380.32V273.55Z" fill="#F0F0F0"/>
<path d="M380.32 277.73H377.83V280.22H380.32V277.73Z" fill="#F0F0F0"/>
<path d="M380.32 286.09H377.83V288.58H380.32V286.09Z" fill="#F0F0F0"/>
<path d="M248.79 205H246.3V207.49H248.79V205Z" fill="#F0F0F0"/>
<path d="M248.79 209.18H246.3V211.67H248.79V209.18Z" fill="#F0F0F0"/>
<path d="M248.79 213.36H246.3V215.85H248.79V213.36Z" fill="#F0F0F0"/>
<path d="M248.79 217.54H246.3V220.03H248.79V217.54Z" fill="#F0F0F0"/>
<path d="M248.79 221.72H246.3V224.21H248.79V221.72Z" fill="#F0F0F0"/>
<path d="M248.79 225.9H246.3V228.39H248.79V225.9Z" fill="#F0F0F0"/>
<path d="M248.79 230.08H246.3V232.57H248.79V230.08Z" fill="#F0F0F0"/>
<path d="M248.79 234.26H246.3V236.75H248.79V234.26Z" fill="#F0F0F0"/>
<path d="M248.79 238.43H246.3V240.92H248.79V238.43Z" fill="#F0F0F0"/>
<path d="M248.79 242.61H246.3V245.1H248.79V242.61Z" fill="#F0F0F0"/>
<path d="M248.79 246.79H246.3V249.28H248.79V246.79Z" fill="#F0F0F0"/>
<path d="M248.79 255.15H246.3V257.64H248.79V255.15Z" fill="#F0F0F0"/>
<path d="M248.79 259.33H246.3V261.82H248.79V259.33Z" fill="#F0F0F0"/>
<path d="M248.79 263.51H246.3V266H248.79V263.51Z" fill="#F0F0F0"/>
<path d="M248.79 267.69H246.3V270.18H248.79V267.69Z" fill="#F0F0F0"/>
<path d="M248.79 271.87H246.3V274.36H248.79V271.87Z" fill="#F0F0F0"/>
<path d="M248.79 276.05H246.3V278.54H248.79V276.05Z" fill="#F0F0F0"/>
<path d="M248.79 280.22H246.3V282.71H248.79V280.22Z" fill="#F0F0F0"/>
<path d="M248.79 284.4H246.3V286.89H248.79V284.4Z" fill="#F0F0F0"/>
<path d="M244.84 205H242.35V207.49H244.84V205Z" fill="#F0F0F0"/>
<path d="M244.84 209.18H242.35V211.67H244.84V209.18Z" fill="#F0F0F0"/>
<path d="M244.84 213.36H242.35V215.85H244.84V213.36Z" fill="#F0F0F0"/>
<path d="M244.84 217.54H242.35V220.03H244.84V217.54Z" fill="#F0F0F0"/>
<path d="M244.84 221.72H242.35V224.21H244.84V221.72Z" fill="#F0F0F0"/>
<path d="M244.84 225.9H242.35V228.39H244.84V225.9Z" fill="#F0F0F0"/>
<path d="M244.84 230.08H242.35V232.57H244.84V230.08Z" fill="#F0F0F0"/>
<path d="M244.84 234.26H242.35V236.75H244.84V234.26Z" fill="#F0F0F0"/>
<path d="M244.84 238.43H242.35V240.92H244.84V238.43Z" fill="#F0F0F0"/>
<path d="M244.84 242.61H242.35V245.1H244.84V242.61Z" fill="#F0F0F0"/>
<path d="M244.84 246.79H242.35V249.28H244.84V246.79Z" fill="#F0F0F0"/>
<path d="M244.84 250.97H242.35V253.46H244.84V250.97Z" fill="#F0F0F0"/>
<path d="M244.84 255.15H242.35V257.64H244.84V255.15Z" fill="#F0F0F0"/>
<path d="M244.84 259.33H242.35V261.82H244.84V259.33Z" fill="#F0F0F0"/>
<path d="M244.84 263.51H242.35V266H244.84V263.51Z" fill="#F0F0F0"/>
<path d="M244.84 267.69H242.35V270.18H244.84V267.69Z" fill="#F0F0F0"/>
<path d="M244.84 271.87H242.35V274.36H244.84V271.87Z" fill="#F0F0F0"/>
<path d="M244.84 276.05H242.35V278.54H244.84V276.05Z" fill="#F0F0F0"/>
<path d="M244.84 280.22H242.35V282.71H244.84V280.22Z" fill="#F0F0F0"/>
<path d="M244.84 284.4H242.35V286.89H244.84V284.4Z" fill="#F0F0F0"/>
<path d="M268.3 221.28H265.81V223.77H268.3V221.28Z" fill="#F0F0F0"/>
<path d="M268.3 225.46H265.81V227.95H268.3V225.46Z" fill="#F0F0F0"/>
<path d="M268.3 229.64H265.81V232.13H268.3V229.64Z" fill="#F0F0F0"/>
<path d="M268.3 233.82H265.81V236.31H268.3V233.82Z" fill="#F0F0F0"/>
<path d="M268.3 237.99H265.81V240.48H268.3V237.99Z" fill="#F0F0F0"/>
<path d="M268.3 242.17H265.81V244.66H268.3V242.17Z" fill="#F0F0F0"/>
<path d="M268.3 246.35H265.81V248.84H268.3V246.35Z" fill="#F0F0F0"/>
<path d="M268.3 250.53H265.81V253.02H268.3V250.53Z" fill="#F0F0F0"/>
<path d="M268.3 254.71H265.81V257.2H268.3V254.71Z" fill="#F0F0F0"/>
<path d="M268.3 258.89H265.81V261.38H268.3V258.89Z" fill="#F0F0F0"/>
<path d="M264.34 221.28H261.85V223.77H264.34V221.28Z" fill="#F0F0F0"/>
<path d="M264.34 225.46H261.85V227.95H264.34V225.46Z" fill="#F0F0F0"/>
<path d="M264.34 229.64H261.85V232.13H264.34V229.64Z" fill="#F0F0F0"/>
<path d="M264.34 233.82H261.85V236.31H264.34V233.82Z" fill="#F0F0F0"/>
<path d="M264.34 237.99H261.85V240.48H264.34V237.99Z" fill="#F0F0F0"/>
<path d="M264.34 242.17H261.85V244.66H264.34V242.17Z" fill="#F0F0F0"/>
<path d="M264.34 246.35H261.85V248.84H264.34V246.35Z" fill="#F0F0F0"/>
<path d="M264.34 250.53H261.85V253.02H264.34V250.53Z" fill="#F0F0F0"/>
<path d="M264.34 254.71H261.85V257.2H264.34V254.71Z" fill="#F0F0F0"/>
<path d="M287.89 62.6904H283.71V295.77H287.89V62.6904Z" fill="#E0E0E0"/>
<path d="M366.6 62.6904H362.42V295.77H366.6V62.6904Z" fill="#E0E0E0"/>
<path d="M445.3 62.6904H441.12V295.77H445.3V62.6904Z" fill="#E0E0E0"/>
<path d="M147.82 273.09H173.6C176.03 273.09 178.01 275.06 178.01 277.5V327.33H143.42V277.5C143.42 275.07 145.39 273.09 147.83 273.09H147.82Z" fill="#F0F0F0"/>
<path d="M178.01 280.42H143.42V284.31H178.01V280.42Z" fill="#E6E6E6"/>
<path d="M163.09 320.76H171.71C173.02 320.76 174.08 321.82 174.08 323.13V327.33H160.72V323.13C160.72 321.82 161.78 320.76 163.09 320.76Z" fill="#E0E0E0"/>
<path d="M174.12 327.33H164.53C163.68 327.33 162.99 326.64 162.99 325.79C162.99 324.94 163.68 324.25 164.53 324.25H174.12C174.97 324.25 175.66 324.94 175.66 325.79C175.66 326.64 174.97 327.33 174.12 327.33Z" fill="#E6E6E6"/>
<path d="M327.709 51.7443C340.368 48.7566 348.207 36.0729 345.22 23.4144C342.232 10.7559 329.548 2.91613 316.89 5.90381C304.231 8.89149 296.391 21.5752 299.379 34.2337C302.367 46.8922 315.05 54.732 327.709 51.7443Z" fill="#E0E0E0"/>
<path d="M325.511 48.5685C336.431 46.796 343.846 36.5073 342.073 25.5879C340.301 14.6686 330.012 7.25357 319.093 9.02603C308.173 10.7985 300.758 21.0872 302.531 32.0066C304.303 42.9259 314.592 50.3409 325.511 48.5685Z" fill="#F0F0F0"/>
<path d="M323.24 15.0801V29.0801L332.52 23.8301" fill="#F0F0F0"/>
<path d="M323.24 15.0801V29.0801L332.52 23.8301" stroke="#E0E0E0" stroke-width="2" stroke-linecap="round" stroke-linejoin="round"/>
<path d="M96.93 258.69C95.13 255.73 92.17 258.3 92.17 258.3C92.59 252.62 87.37 248.74 87.37 248.74C87.37 248.74 93.44 248.74 94.29 242.95C95.14 237.16 92.17 239.85 89.39 239.81C86.61 239.77 83.7 247.89 87.37 252.46C91.04 257.03 90.05 264.83 81.59 272.33C79.52 274.16 78.12 276.6 77.17 279.23C77.81 272.34 78.17 262.63 76.14 256.15C72.7 245.14 79.26 242.18 81.16 236.67C83.07 231.17 76.14 226.51 76.14 226.51C76.14 226.51 82.65 223.55 79.47 220.16C76.29 216.77 69.73 217.23 69.73 221.66C69.73 226.09 74.18 227.78 74.18 227.78C74.18 227.78 79.26 233.07 79.26 235.83C79.26 238.59 74.18 244.51 74.18 244.51C74.18 244.51 76.51 239.44 71.85 239.22C67.19 239 65.71 245.14 67.62 247.9C69.53 250.65 72.7 248.32 72.7 248.32C72.7 248.32 73.07 254.25 74.16 257.85C74.64 259.43 74.41 265.64 74.01 272.1C73.07 269.77 71.74 267.63 69.89 265.98C61.42 258.48 60.44 250.68 64.11 246.11C67.78 241.54 64.87 233.42 62.09 233.46C59.31 233.5 56.34 230.8 57.19 236.6C58.04 242.4 64.11 242.39 64.11 242.39C64.11 242.39 58.88 246.28 59.31 251.95C59.31 251.95 56.35 249.37 54.55 252.34C51.34 257.63 58.78 260.91 60.04 258.31C60.04 258.31 75.83 269.49 72.02 285.58L72.91 286.89C72.8 288.19 72.72 288.97 72.72 288.97L73.96 288.44L75.37 290.51C75.3 294.53 75.73 297.5 75.73 297.5L79.51 291.93C75.7 275.84 91.49 264.66 91.49 264.66C92.74 267.26 100.19 263.98 96.98 258.69H96.93Z" fill="#693B93"/>
<path opacity="0.2" d="M96.93 258.69C95.13 255.73 92.17 258.3 92.17 258.3C92.59 252.62 87.37 248.74 87.37 248.74C87.37 248.74 93.44 248.74 94.29 242.95C95.14 237.16 92.17 239.85 89.39 239.81C86.61 239.77 83.7 247.89 87.37 252.46C91.04 257.03 90.05 264.83 81.59 272.33C79.52 274.16 78.12 276.6 77.17 279.23C77.81 272.34 78.17 262.63 76.14 256.15C72.7 245.14 79.26 242.18 81.16 236.67C83.07 231.17 76.14 226.51 76.14 226.51C76.14 226.51 82.65 223.55 79.47 220.16C76.29 216.77 69.73 217.23 69.73 221.66C69.73 226.09 74.18 227.78 74.18 227.78C74.18 227.78 79.26 233.07 79.26 235.83C79.26 238.59 74.18 244.51 74.18 244.51C74.18 244.51 76.51 239.44 71.85 239.22C67.19 239 65.71 245.14 67.62 247.9C69.53 250.65 72.7 248.32 72.7 248.32C72.7 248.32 73.07 254.25 74.16 257.85C74.64 259.43 74.41 265.64 74.01 272.1C73.07 269.77 71.74 267.63 69.89 265.98C61.42 258.48 60.44 250.68 64.11 246.11C67.78 241.54 64.87 233.42 62.09 233.46C59.31 233.5 56.34 230.8 57.19 236.6C58.04 242.4 64.11 242.39 64.11 242.39C64.11 242.39 58.88 246.28 59.31 251.95C59.31 251.95 56.35 249.37 54.55 252.34C51.34 257.63 58.78 260.91 60.04 258.31C60.04 258.31 75.83 269.49 72.02 285.58L72.91 286.89C72.8 288.19 72.72 288.97 72.72 288.97L73.96 288.44L75.37 290.51C75.3 294.53 75.73 297.5 75.73 297.5L79.51 291.93C75.7 275.84 91.49 264.66 91.49 264.66C92.74 267.26 100.19 263.98 96.98 258.69H96.93Z" fill="#693B93"/>
<path d="M93.84 327.33H57.67L53.76 287.72H97.74L93.84 327.33Z" fill="#E6E6E6"/>
<path d="M99.67 283.35H51.83V292.09H99.67V283.35Z" fill="#F0F0F0"/>
<path d="M250 372.61C357.082 372.61 443.89 367.542 443.89 361.29C443.89 355.038 357.082 349.97 250 349.97C142.918 349.97 56.11 355.038 56.11 361.29C56.11 367.542 142.918 372.61 250 372.61Z" fill="#F5F5F5"/>
<path d="M410.45 329.76C410.6 328.74 414.1 304.59 407.09 296.25C405.54 294.4 403.58 293.44 401.27 293.38C387.12 293.05 385.18 304.42 385.16 304.53L386.83 304.79C386.89 304.38 388.57 294.76 401.23 295.07C403.06 295.11 404.56 295.86 405.8 297.34C412.33 305.1 408.82 329.27 408.78 329.51L410.45 329.76Z" fill="#693B93"/>
<path d="M411.3 328.66L412.99 328.61C412.99 328.39 412.43 306.36 423.28 301.81C433.92 297.35 438.7 306.52 438.9 306.91L440.41 306.15C440.35 306.04 434.74 295.17 422.63 300.25C410.71 305.25 411.27 327.71 411.3 328.66Z" fill="#693B93"/>
<path d="M411.25 330.39C411.25 330.04 411.35 295.2 418.14 285.01C424.66 275.23 435.18 279.83 435.63 280.03L436.33 278.49C436.21 278.43 424.07 273.08 416.74 284.07C409.67 294.68 409.56 328.93 409.56 330.39H411.25Z" fill="#693B93"/>
<path d="M399.24 294.23C399.24 294.23 405.42 296.51 403.58 301.89C401.74 307.27 382.2 316.12 382.2 316.12C382.2 316.12 374.02 308.62 381.53 296.42C389.05 284.22 399.07 290.39 399.23 294.23H399.24Z" fill="#693B93"/>
<path d="M418.45 283.18C418.45 283.18 414.06 282.71 414.42 280.04C414.78 277.37 431.47 270.49 441.33 281.61C441.33 281.61 435.02 292.45 425.9 292.59C416.78 292.73 418.46 283.18 418.46 283.18H418.45Z" fill="#693B93"/>
<path d="M422.96 301.03C422.96 301.03 419.93 298.59 423.2 297.39C426.47 296.2 442.5 296.54 442.67 312.42C442.67 312.42 424 315.52 421.69 309.47C419.38 303.42 422.97 301.03 422.97 301.03H422.96Z" fill="#693B93"/>
<path opacity="0.2" d="M399.24 294.23C399.24 294.23 405.42 296.51 403.58 301.89C401.74 307.27 382.2 316.12 382.2 316.12C382.2 316.12 374.02 308.62 381.53 296.42C389.05 284.22 399.07 290.39 399.23 294.23H399.24Z" fill="black"/>
<path opacity="0.2" d="M418.45 283.18C418.45 283.18 414.06 282.71 414.42 280.04C414.78 277.37 431.47 270.49 441.33 281.61C441.33 281.61 435.02 292.45 425.9 292.59C416.78 292.73 418.46 283.18 418.46 283.18H418.45Z" fill="black"/>
<path opacity="0.2" d="M422.96 301.03C422.96 301.03 419.93 298.59 423.2 297.39C426.47 296.2 442.5 296.54 442.67 312.42C442.67 312.42 424 315.52 421.69 309.47C419.38 303.42 422.97 301.03 422.97 301.03H422.96Z" fill="black"/>
<path d="M395.92 362.12H424.9L428.02 330.39H392.8L395.92 362.12Z" fill="#693B93"/>
<path opacity="0.5" d="M395.92 362.12H424.9L428.02 330.39H392.8L395.92 362.12Z" fill="white"/>
<path d="M391.25 333.9H429.57V326.9H391.25V333.9Z" fill="#693B93"/>
<path opacity="0.2" d="M391.25 333.9H429.57V326.9H391.25V333.9Z" fill="white"/>
<path d="M363.12 339.38L334.31 336.55V296.06H322.89V336.54L293.96 339.38C291.09 339.66 288.9 342.08 288.9 344.96V349.29H368.18V344.96C368.18 342.07 365.99 339.66 363.12 339.38Z" fill="black"/>
<path opacity="0.2" d="M363.12 339.38L334.31 336.55V296.06H322.89V336.54L293.96 339.38C291.09 339.66 288.9 342.08 288.9 344.96V349.29H368.18V344.96C368.18 342.07 365.99 339.66 363.12 339.38Z" fill="white"/>
<path d="M291.95 362.12C296.076 362.12 299.42 358.776 299.42 354.65C299.42 350.525 296.076 347.18 291.95 347.18C287.824 347.18 284.48 350.525 284.48 354.65C284.48 358.776 287.824 362.12 291.95 362.12Z" fill="black"/>
<path d="M365.14 362.12C369.266 362.12 372.61 358.776 372.61 354.65C372.61 350.525 369.266 347.18 365.14 347.18C361.014 347.18 357.67 350.525 357.67 354.65C357.67 358.776 361.014 362.12 365.14 362.12Z" fill="black"/>
<path d="M320.93 268.69H336.28V300.62C336.28 302.9 334.43 304.75 332.15 304.75H325.06C322.78 304.75 320.93 302.9 320.93 300.62V268.69Z" fill="black"/>
<path opacity="0.3" d="M320.93 268.69H336.28V300.62C336.28 302.9 334.43 304.75 332.15 304.75H325.06C322.78 304.75 320.93 302.9 320.93 300.62V268.69Z" fill="white"/>
<path d="M355.9 205.4C355.9 205.4 358.08 259.4 343.04 268.69H360.2C360.2 268.69 373.5 250.29 369.74 205.4H355.89H355.9Z" fill="black"/>
<path opacity="0.3" d="M355.9 205.4C355.9 205.4 358.08 259.4 343.04 268.69H360.2C360.2 268.69 373.5 250.29 369.74 205.4H355.89H355.9Z" fill="white"/>
<path d="M366.05 272.83H289.13V266.14C289.13 263.38 291.37 261.14 294.13 261.14H361.05C363.81 261.14 366.05 263.38 366.05 266.14V272.83Z" fill="black"/>
<path d="M287.93 272.83H367.24C368.35 272.83 369.25 271.93 369.25 270.82V269C369.25 267.89 368.35 266.99 367.24 266.99H287.93C286.82 266.99 285.92 267.89 285.92 269V270.82C285.92 271.93 286.82 272.83 287.93 272.83Z" fill="black"/>
<path opacity="0.6" d="M287.93 272.83H367.24C368.35 272.83 369.25 271.93 369.25 270.82V269C369.25 267.89 368.35 266.99 367.24 266.99H287.93C286.82 266.99 285.92 267.89 285.92 269V270.82C285.92 271.93 286.82 272.83 287.93 272.83Z" fill="white"/>
<path d="M373.96 176.45H346.46C338.408 176.45 331.88 182.978 331.88 191.03V201.79C331.88 209.843 338.408 216.37 346.46 216.37H373.96C382.012 216.37 388.54 209.843 388.54 201.79V191.03C388.54 182.978 382.012 176.45 373.96 176.45Z" fill="black"/>
<path d="M263.05 132.33L257.56 117.86C257.56 117.86 259.91 115.68 258.3 113.47C256.69 111.26 246.56 105.04 244.71 106.14C242.86 107.23 238.77 111.35 240.98 113.64C243.2 115.93 253.01 119.74 253.01 119.74L257.86 138.73L263.04 132.33H263.05Z" fill="#E4897B"/>
<path d="M301.38 159.84C301.38 159.84 276.41 154.71 273.7 153.48C270.99 152.25 260.94 122.82 260.94 122.82L253.24 126.42C253.24 126.42 259.44 155.96 265.78 162.99C272.12 170.01 299.17 175.96 299.17 175.96L301.38 159.85V159.84Z" fill="#693B93"/>
<path opacity="0.2" d="M299.17 175.94C299.17 175.94 299.01 175.91 298.71 175.83C297.34 175.52 293.08 174.52 288.01 173.03C279.78 170.64 269.4 166.98 265.78 162.97C259.45 155.94 253.24 126.4 253.24 126.4L260.94 122.8C260.94 122.8 270.99 152.24 273.71 153.46C276.42 154.68 301.38 159.81 301.38 159.81L299.17 175.92V175.94Z" fill="black"/>
<path d="M261.07 122.24L262.66 125.31L252.76 128.72L253.14 124.97L261.07 122.24Z" fill="#693B93"/>
<path opacity="0.2" d="M299.36 175.54C297.97 175.34 293.64 174.67 288.47 173.58C291.42 168.49 300.06 165.87 300.06 165.87L299.36 175.54Z" fill="black"/>
<path d="M336.58 139.46C336.58 139.46 338.05 153.29 332.92 156.69C327.8 160.09 302.59 156.11 299.73 150.54C296.87 144.98 307.63 129.87 307.63 129.87L336.57 139.46H336.58Z" fill="black"/>
<path d="M234.59 321.44L241.17 323.03L244.5 313.95L247.52 305.69L240.03 302.5L237.15 312.52L234.59 321.44Z" fill="#E4897B"/>
<path opacity="0.2" d="M237.15 312.52L244.5 313.95L247.52 305.69L240.03 302.5L237.15 312.52Z" fill="black"/>
<path d="M237.81 307.73L246.93 311.12C246.93 311.12 271.26 250.29 276.26 250.08C281.26 249.87 332.17 273.27 344.93 260.29C357.69 247.32 339.24 216.05 339.24 216.05C339.24 216.05 308.55 211.67 306.24 218.6C305.79 219.94 305.3 222.57 304.94 224.82C304.59 226.94 304.35 228.72 304.35 228.72C304.35 228.72 304.34 228.72 304.33 228.72C303.38 228.48 272.57 220.53 260.43 228.72C248.1 237.06 237.81 307.73 237.81 307.73Z" fill="#693B93"/>
<path opacity="0.6" d="M237.81 307.73L246.93 311.12C246.93 311.12 271.26 250.29 276.26 250.08C281.26 249.87 332.17 273.27 344.93 260.29C357.69 247.32 339.24 216.05 339.24 216.05C339.24 216.05 308.55 211.67 306.24 218.6C305.79 219.94 305.3 222.57 304.94 224.82C304.59 226.94 304.35 228.72 304.35 228.72C304.35 228.72 304.34 228.72 304.33 228.72C303.38 228.48 272.57 220.53 260.43 228.72C248.1 237.06 237.81 307.73 237.81 307.73Z" fill="white"/>
<path d="M290.27 347.39L296.82 345.71L295.56 336.31L294.39 327.69L286.29 328.42L288.39 338.46L290.27 347.39Z" fill="#E4897B"/>
<path opacity="0.2" d="M288.44 338.67L295.6 336.49L294.41 327.78L286.3 328.46L288.44 338.67Z" fill="black"/>
<path d="M250.7 307.74L237.41 303.23L236.85 308.67L246.92 312.23L250.7 307.74Z" fill="#693B93"/>
<path d="M322.89 263.41C322.89 263.41 320.81 263.46 288.62 261.96C288.62 261.96 293.43 302.21 296.06 332.33L286.43 333.97C286.43 333.97 263.43 269.46 263.68 259.21C263.93 248.96 275.68 245.96 275.68 245.96C275.68 245.96 298.61 259.21 322.89 263.41Z" fill="#693B93"/>
<path opacity="0.6" d="M322.89 263.41C322.89 263.41 320.81 263.46 288.62 261.96C288.62 261.96 293.43 302.21 296.06 332.33L286.43 333.97C286.43 333.97 263.43 269.46 263.68 259.21C263.93 248.96 275.68 245.96 275.68 245.96C275.68 245.96 298.61 259.21 322.89 263.41Z" fill="white"/>
<path opacity="0.1" d="M322.89 263.41C322.89 263.41 320.81 263.46 288.62 261.96C288.62 261.96 293.43 302.21 296.06 332.33L286.43 333.97C286.43 333.97 263.43 269.46 263.68 259.21C263.93 248.96 275.68 245.96 275.68 245.96C275.68 245.96 298.61 259.21 322.89 263.41Z" fill="black"/>
<path d="M297.46 329.41L284.23 330.91L286.79 336.1L297.5 334.73L297.46 329.41Z" fill="#693B93"/>
<path opacity="0.1" d="M304.35 228.72L322.3 232.46C322.3 232.46 312.38 226.98 304.94 224.82C304.59 226.94 304.35 228.72 304.35 228.72Z" fill="black"/>
<path d="M338.5 211.27L339.24 216.05L306.24 218.59L305.36 212.95L338.5 211.27Z" fill="black"/>
<path opacity="0.2" d="M338.5 211.27L339.24 216.05L306.24 218.59L305.36 212.95L338.5 211.27Z" fill="black"/>
<path d="M328.093 219.274L329.724 219.106L328.87 210.8L327.239 210.967L328.093 219.274Z" fill="#693B93"/>
<path d="M313.438 218.439L320.663 217.974L320.311 212.495L313.086 212.96L313.438 218.439Z" fill="white"/>
<path d="M307.844 220.136L309.476 219.969L308.622 211.663L306.99 211.83L307.844 220.136Z" fill="#693B93"/>
<path opacity="0.6" d="M328.093 219.274L329.724 219.106L328.87 210.8L327.239 210.967L328.093 219.274Z" fill="white"/>
<path opacity="0.6" d="M307.844 220.136L309.476 219.969L308.622 211.663L306.99 211.83L307.844 220.136Z" fill="white"/>
<path d="M300.78 159.38C300.78 159.38 309.2 162.02 319.79 161.48C330.38 160.94 343.04 166.08 343.04 166.08L338.49 211.27L305.36 212.94C305.36 212.94 294.23 175.2 300.78 159.38Z" fill="#693B93"/>
<path d="M306.11 133.86C306.11 133.86 307.97 111.91 326.32 119.89C349.35 129.9 331.04 156.63 319.79 151.14C308.54 145.65 306.11 133.86 306.11 133.86Z" fill="black"/>
<path opacity="0.2" d="M311.25 162.71L311.78 175.11L315.89 169.28C315.89 169.28 314.42 183 315.28 190.46C315.28 190.46 316.07 177.07 317.93 169.28L322.3 175.11L328.57 162.79C328.57 162.79 318.42 159.14 311.24 162.71H311.25Z" fill="black"/>
<path d="M316.93 165.01L326.42 162.33C320.57 158.31 323.52 149.31 323.52 149.31L314.12 152.61C314.62 154.17 314.94 155.49 315.13 156.63C316.11 162.49 313.46 162.96 313.46 162.96L316.93 165.01Z" fill="#E4897B"/>
<path opacity="0.2" d="M314.12 152.62C314.62 154.18 314.94 155.5 315.13 156.64C319.63 154.84 323.52 149.32 323.52 149.32L314.12 152.62Z" fill="black"/>
<path d="M320.26 124.5C311.94 122.66 308.27 126.52 305.76 134.96C302.63 145.51 303.32 153.65 314.23 153.66C329.05 153.68 334.08 127.55 320.26 124.49V124.5Z" fill="#E4897B"/>
<path d="M311.24 135.69C311.24 135.69 309.61 137.61 308.05 138.61C308.05 138.61 308.51 139.9 310.04 140.04L311.24 135.7V135.69Z" fill="#DE5753"/>
<path d="M316.49 136.13C316.32 136.81 316.55 137.45 317.01 137.56C317.46 137.67 317.97 137.21 318.13 136.53C318.3 135.85 318.07 135.21 317.61 135.1C317.16 134.99 316.65 135.45 316.49 136.13Z" fill="black"/>
<path d="M317.79 135.18L316.45 134.24C316.45 134.24 316.88 135.67 317.79 135.18Z" fill="black"/>
<path d="M308.07 133.91C307.9 134.59 308.13 135.23 308.59 135.34C309.04 135.45 309.55 134.99 309.71 134.31C309.88 133.63 309.65 132.99 309.19 132.88C308.74 132.77 308.23 133.23 308.07 133.91Z" fill="black"/>
<path d="M309.37 132.96L308.03 132.02C308.03 132.02 308.46 133.45 309.37 132.96Z" fill="black"/>
<path d="M317.84 130.4C317.84 130.4 320.25 130.61 321.17 132.46" stroke="black" stroke-width="0.72" stroke-linecap="round" stroke-linejoin="round"/>
<path d="M311.87 128.71C311.87 128.71 310.52 127.84 308.4 128.66" stroke="black" stroke-width="0.72" stroke-linecap="round" stroke-linejoin="round"/>
<path d="M326.25 140.54C326.25 140.54 323.87 132.84 325.63 127.69C325.63 127.69 310.63 117.3 306.11 133.86C306.11 133.86 307.79 118.64 322.17 121.47C336.53 124.3 331.86 145.22 323.09 149.82C323.09 149.82 327.71 145.34 326.25 140.53V140.54Z" fill="black"/>
<path d="M324.5 141.99C324.85 140.66 326.74 138.7 329.17 139.52C331.69 140.37 331.74 145.94 325.05 145.79C324.09 145.77 323.77 144.75 324.5 141.98V141.99Z" fill="#E4897B"/>
<path d="M308.55 143.19C308.84 144.29 308.98 146.28 308.98 146.28C309.16 146.3 309.35 146.32 309.53 146.33C312.01 146.54 313.24 145.82 313.84 144.95C314.17 144.48 314.3 143.95 314.36 143.52C314.43 143.02 314.36 142.65 314.36 142.65C312.98 143.33 310.64 143.31 309.4 143.24C308.88 143.22 308.55 143.18 308.55 143.18V143.19Z" fill="black"/>
<path d="M309.4 143.25L309.55 144.16C311.89 144.35 313.57 144.18 314.36 143.53C314.43 143.03 314.36 142.66 314.36 142.66C312.98 143.34 310.64 143.32 309.4 143.25Z" fill="white"/>
<path d="M309.53 146.33C312.01 146.54 313.24 145.82 313.84 144.95C312.99 144.91 311.96 144.95 311.03 145.26C310.32 145.49 309.85 145.9 309.53 146.32V146.33Z" fill="#DE5753"/>
<path d="M320.29 125.16C320.29 125.16 320.61 139.6 329.27 141.33C337.93 143.06 328.46 122.78 328.46 122.78C328.46 122.78 315.56 114.36 306.97 120.29C298.37 126.23 306.1 133.86 306.1 133.86C306.1 133.86 307.92 123.14 320.28 125.16H320.29Z" fill="black"/>
<path d="M320.59 124.21C320.59 124.21 317.5 133.34 323.6 138.13" stroke="black" stroke-width="0.5" stroke-linecap="round" stroke-linejoin="round"/>
<path d="M331.8 144.3C330.7 147.24 327.87 148.89 325.48 147.99C323.09 147.09 322.05 143.99 323.15 141.05C324.25 138.11 327.08 136.46 329.47 137.36C331.86 138.26 332.9 141.36 331.8 144.3Z" fill="#693B93"/>
<path opacity="0.4" d="M331.8 144.3C330.7 147.24 327.87 148.89 325.48 147.99C323.09 147.09 322.05 143.99 323.15 141.05C324.25 138.11 327.08 136.46 329.47 137.36C331.86 138.26 332.9 141.36 331.8 144.3Z" fill="black"/>
<path d="M329.04 139.49C329.04 139.49 332.63 123.42 324.58 119.21C324.58 119.21 326.26 119.44 327.3 119.74C328.34 120.04 334.77 126.56 331.52 141L329.04 139.49Z" fill="#693B93"/>
<path opacity="0.2" d="M329.04 139.49C329.04 139.49 332.63 123.42 324.58 119.21C324.58 119.21 326.26 119.44 327.3 119.74C328.34 120.04 334.77 126.56 331.52 141L329.04 139.49Z" fill="black"/>
<path d="M313.95 148.69C313.75 148.66 313.55 148.63 313.35 148.6L313.51 147.61C320.76 148.79 326.15 144.96 326.2 144.92L326.79 145.73C326.56 145.89 321.32 149.66 313.95 148.69Z" fill="#693B93"/>
<g opacity="0.2">
<path d="M313.95 148.69C313.75 148.66 313.55 148.63 313.35 148.6L313.51 147.61C320.76 148.79 326.15 144.96 326.2 144.92L326.79 145.73C326.56 145.89 321.32 149.66 313.95 148.69Z" fill="black"/>
</g>
<path d="M331.46 143.9C330.73 145.84 328.86 146.93 327.28 146.34C325.7 145.75 325.01 143.69 325.74 141.75C326.47 139.81 328.34 138.72 329.92 139.31C331.5 139.9 332.19 141.96 331.46 143.9Z" fill="#693B93"/>
<path d="M313.06 149.01L312.26 148.9C311.66 148.82 311.24 148.28 311.32 147.68C311.4 147.08 311.94 146.66 312.54 146.74L313.34 146.85C313.94 146.93 314.36 147.47 314.28 148.07C314.2 148.67 313.66 149.09 313.06 149.01Z" fill="#693B93"/>
<path opacity="0.4" d="M313.06 149.01L312.26 148.9C311.66 148.82 311.24 148.28 311.32 147.68C311.4 147.08 311.94 146.66 312.54 146.74L313.34 146.85C313.94 146.93 314.36 147.47 314.28 148.07C314.2 148.67 313.66 149.09 313.06 149.01Z" fill="black"/>
<path d="M323.87 158.9L317.93 164.73L320.31 171.88L328.57 162.78L323.87 158.9Z" fill="#693B93"/>
<path d="M315.28 160.12L316.24 164.61L313.17 170.96L311.25 162.71L315.28 160.12Z" fill="#693B93"/>
<path d="M322.6 163.96L326.05 151.33C326.05 151.33 324.38 148.18 324.74 147.53C325.1 146.87 326.9 138.39 328.18 137.47C329.46 136.55 334.72 138.12 335.26 138.98C335.8 139.84 330.22 151.33 330.22 151.33L328.19 165.01L322.61 163.96H322.6Z" fill="#E4897B"/>
<path d="M343.04 166.08C352.53 175.8 333.5 197.82 322.6 196.88C311.7 195.94 322.87 156.02 322.87 156.02L329.85 157.17C329.85 157.17 327.4 174.45 328.17 175.8C328.94 177.16 339.84 162.81 343.03 166.08H343.04Z" fill="#693B93"/>
<path opacity="0.2" d="M343.04 166.08C352.53 175.8 333.5 197.82 322.6 196.88C311.7 195.94 322.87 156.02 322.87 156.02L329.85 157.17C329.85 157.17 327.4 174.45 328.17 175.8C328.94 177.16 339.84 162.81 343.03 166.08H343.04Z" fill="black"/>
<path d="M322.3 154.74L321.27 158.04L331 158.9V156.02L322.3 154.74Z" fill="#693B93"/>
<path opacity="0.6" d="M307.55 180.85H303.61C303.174 180.85 302.82 181.204 302.82 181.64V189.08C302.82 189.516 303.174 189.87 303.61 189.87H307.55C307.986 189.87 308.34 189.516 308.34 189.08V181.64C308.34 181.204 307.986 180.85 307.55 180.85Z" fill="white"/>
<path opacity="0.2" d="M307.63 181.44H303.15V187.57H307.63V181.44Z" fill="black"/>
<path d="M305.99 178.67H305V182.28H305.99V178.67Z" fill="black"/>
<path d="M223.71 334.22C224.71 333.76 225.79 333.49 226.88 333.41C226.88 333.41 230.68 331.17 234.44 322.49L238.67 322.47C240.14 322.49 241.43 323.42 241.92 324.8C241.99 324.99 242.03 325.19 242.04 325.39C242 326.41 241.89 327.43 241.71 328.44C241.33 331.61 239.24 338.4 239.24 338.4L238.52 338.22L239.82 331.9C240.25 329.75 238 331.83 236.95 333.99C235.9 336.15 234.3 338.33 229.62 337.26C224.17 335.99 221.98 335.2 223.68 334.22H223.71Z" fill="#693B93"/>
<path d="M235.21 320.21C235.21 320.21 229.92 331.27 226.88 333.41C226.88 333.41 230.96 335.84 235.21 330.43C240.7 323.43 242.05 325.38 242.05 325.38C242.05 325.38 241.82 322.98 241.39 321.81C240.56 319.55 235.21 320.21 235.21 320.21Z" fill="#E4897B"/>
<path d="M281.93 360.57C282.79 359.89 283.77 359.37 284.82 359.03C284.82 359.03 287.98 355.96 289.58 346.63L293.69 345.6C295.12 345.27 296.6 345.86 297.4 347.09C297.51 347.26 297.6 347.44 297.66 347.63C297.86 348.63 298 349.65 298.07 350.67C298.45 353.84 298.03 360.93 298.03 360.93H297.29L297.06 354.48C296.97 352.29 295.27 354.84 294.77 357.19C294.27 359.54 293.22 362.04 288.43 362.11C282.84 362.16 280.52 361.92 281.94 360.57H281.93Z" fill="#693B93"/>
<path d="M289.78 344.24C289.78 344.24 287.27 356.24 284.82 359.03C284.82 359.03 289.36 360.43 292.2 354.16C295.88 346.05 297.65 347.64 297.65 347.64C297.65 347.64 296.86 345.37 296.16 344.33C294.82 342.33 289.78 344.24 289.78 344.24Z" fill="#E4897B"/>
<path d="M382.76 102.19H347.85C345.05 102.19 342.78 104.46 342.78 107.26V122.19C342.78 124.99 345.05 127.26 347.85 127.26H382.76C385.56 127.26 387.83 124.99 387.83 122.19V107.26C387.83 104.46 385.56 102.19 382.76 102.19Z" fill="#693B93"/>
<path d="M354.85 124.41L344.33 138.71L361.3 125.37L354.85 124.41Z" fill="#693B93"/>
<path d="M355.24 114.73C355.24 115.54 354.58 116.21 353.76 116.21C352.94 116.21 352.28 115.55 352.28 114.73C352.28 113.91 352.94 113.25 353.76 113.25C354.58 113.25 355.24 113.91 355.24 114.73Z" fill="white"/>
<path d="M362.93 114.73C362.93 115.54 362.27 116.21 361.45 116.21C360.63 116.21 359.97 115.55 359.97 114.73C359.97 113.91 360.63 113.25 361.45 113.25C362.27 113.25 362.93 113.91 362.93 114.73Z" fill="white"/>
<path d="M370.62 114.73C370.62 115.54 369.96 116.21 369.14 116.21C368.32 116.21 367.66 115.55 367.66 114.73C367.66 113.91 368.32 113.25 369.14 113.25C369.96 113.25 370.62 113.91 370.62 114.73Z" fill="white"/>
<path d="M378.31 114.73C378.31 115.54 377.65 116.21 376.83 116.21C376.01 116.21 375.35 115.55 375.35 114.73C375.35 113.91 376.01 113.25 376.83 113.25C377.65 113.25 378.31 113.91 378.31 114.73Z" fill="white"/>
<path d="M251.673 90.3803L226.767 76.964C226.096 76.6026 225.259 76.8535 224.897 77.5245L216.949 92.2799C216.588 92.9509 216.839 93.7879 217.51 94.1493L242.416 107.566C243.087 107.927 243.924 107.676 244.285 107.005L252.234 92.2497C252.595 91.5787 252.344 90.7418 251.673 90.3803Z" fill="#693B93"/>
<path opacity="0.7" d="M251.673 90.3803L226.767 76.964C226.096 76.6026 225.259 76.8535 224.897 77.5245L216.949 92.2799C216.588 92.9509 216.839 93.7879 217.51 94.1493L242.416 107.566C243.087 107.927 243.924 107.676 244.285 107.005L252.234 92.2497C252.595 91.5787 252.344 90.7418 251.673 90.3803Z" fill="white"/>
<path opacity="0.2" d="M224.25 78.7402L232.04 93.2902C232.65 94.4202 233.88 95.0802 235.15 94.9502L251.36 93.3502L234.85 95.7802C233.37 96.0002 231.92 95.2202 231.29 93.8602L224.24 78.7402H224.25Z" fill="black"/>
<path d="M205.34 76.0301C205.6 70.4701 209.72 59.2601 214.73 55.8301C219.74 52.4001 216.44 57.1501 216.44 57.1501C216.44 57.1501 221.19 52.5301 223.69 52.6701C226.19 52.8101 223.69 55.7001 223.69 55.7001C223.69 55.7001 228.83 52.5301 231.21 52.6601C233.58 52.7901 231.21 55.5601 231.21 55.5601C231.21 55.5601 235.43 52.5301 237.14 53.9801C238.85 55.4301 215.25 70.9901 212.61 77.3201C209.97 83.6501 205.06 81.6601 205.33 76.0301H205.34Z" fill="#693B93"/>
<path opacity="0.4" d="M205.34 76.0301C205.6 70.4701 209.72 59.2601 214.73 55.8301C219.74 52.4001 216.44 57.1501 216.44 57.1501C216.44 57.1501 221.19 52.5301 223.69 52.6701C226.19 52.8101 223.69 55.7001 223.69 55.7001C223.69 55.7001 228.83 52.5301 231.21 52.6601C233.58 52.7901 231.21 55.5601 231.21 55.5601C231.21 55.5601 235.43 52.5301 237.14 53.9801C238.85 55.4301 215.25 70.9901 212.61 77.3201C209.97 83.6501 205.06 81.6601 205.33 76.0301H205.34Z" fill="white"/>
<path d="M225.62 75.21L228.77 77.23C229 77.38 228.88 77.73 228.61 77.71L225.3 77.45L225.58 79.99C225.61 80.27 225.27 80.42 225.08 80.21L223.17 78.05L225.61 75.21H225.62Z" fill="#693B93"/>
<path opacity="0.3" d="M225.62 75.21L228.77 77.23C229 77.38 228.88 77.73 228.61 77.71L225.3 77.45L225.58 79.99C225.61 80.27 225.27 80.42 225.08 80.21L223.17 78.05L225.61 75.21H225.62Z" fill="white"/>
<path d="M181.37 62.69C181.37 62.69 185.72 59.66 192.32 61.63C192.32 61.63 194.22 70.33 199.4 73.23C202.25 74.82 209.22 74.69 214.74 72.9C221.29 70.78 224.5 70.78 225.68 73.23C226.8 75.55 225.55 78.24 220.54 79.43C215.53 80.62 211.57 89.32 202.47 89.45C193.37 89.58 188.58 80.46 190.87 72.44C190.87 72.44 188.1 66.46 181.38 62.68L181.37 62.69Z" fill="#693B93"/>
<path opacity="0.5" d="M181.37 62.69C181.37 62.69 185.72 59.66 192.32 61.63C192.32 61.63 194.22 70.33 199.4 73.23C202.25 74.82 209.22 74.69 214.74 72.9C221.29 70.78 224.5 70.78 225.68 73.23C226.8 75.55 225.55 78.24 220.54 79.43C215.53 80.62 211.57 89.32 202.47 89.45C193.37 89.58 188.58 80.46 190.87 72.44C190.87 72.44 188.1 66.46 181.38 62.68L181.37 62.69Z" fill="white"/>
<path d="M223.18 74.8802C223.18 75.1302 222.98 75.3302 222.73 75.3302C222.48 75.3302 222.28 75.1302 222.28 74.8802C222.28 74.6302 222.48 74.4302 222.73 74.4302C222.98 74.4302 223.18 74.6302 223.18 74.8802Z" fill="black"/>
<path d="M200.36 82.2104C194.99 83.6804 183.05 83.2204 178.24 79.5104C173.43 75.8004 178.97 77.4704 178.97 77.4704C178.97 77.4704 173.11 74.3804 172.47 71.9604C171.82 69.5404 175.35 71.0204 175.35 71.0204C175.35 71.0204 170.75 67.1104 170.14 64.8104C169.54 62.5104 172.9 63.9104 172.9 63.9104C172.9 63.9104 168.71 60.8304 169.56 58.7504C170.41 56.6704 192.5 74.3204 199.33 74.8804C206.16 75.4304 205.79 80.7204 200.35 82.2104H200.36Z" fill="#693B93"/>
<path opacity="0.4" d="M200.36 82.2104C194.99 83.6804 183.05 83.2204 178.24 79.5104C173.43 75.8004 178.97 77.4704 178.97 77.4704C178.97 77.4704 173.11 74.3804 172.47 71.9604C171.82 69.5404 175.35 71.0204 175.35 71.0204C175.35 71.0204 170.75 67.1104 170.14 64.8104C169.54 62.5104 172.9 63.9104 172.9 63.9104C172.9 63.9104 168.71 60.8304 169.56 58.7504C170.41 56.6704 192.5 74.3204 199.33 74.8804C206.16 75.4304 205.79 80.7204 200.35 82.2104H200.36Z" fill="white"/>
<path d="M165.16 57.5103C164.22 57.1803 163.27 56.8603 162.31 56.5703" stroke="#693B93" stroke-width="0.75" stroke-linecap="round" stroke-linejoin="round"/>
<path d="M156.47 55.0804C152.97 54.3504 149.4 53.8704 145.86 53.6204C136.14 52.9404 120.89 51.9804 114.94 61.6704C109.51 70.5004 118.85 85.5604 122.16 93.7604C126.22 103.8 131.05 116.21 126.25 126.84C116.39 148.68 74.2 137.34 59.97 117.22" stroke="#693B93" stroke-width="0.75" stroke-linecap="round" stroke-linejoin="round"/>
<path d="M58.36 114.69C57.86 113.81 57.41 112.91 57.03 112" stroke="#693B93" stroke-width="0.75" stroke-linecap="round" stroke-linejoin="round"/>
<path d="M179.81 194.09H141.85V201.87H179.81V194.09Z" fill="white"/>
<path opacity="0.1" d="M179.81 194.09H141.85V201.87H179.81V194.09Z" fill="black"/>
<path opacity="0.1" d="M157.84 194.09H141.85V201.87H157.84V194.09Z" fill="black"/>
<path opacity="0.1" d="M141.85 195.21H175.64L141.85 196.17V195.21Z" fill="black"/>
<path opacity="0.1" d="M179.81 196.56L150.52 197.29H179.81V196.56Z" fill="black"/>
<path opacity="0.1" d="M143.4 198.74L157.84 198.14L179.07 198.74L157.84 199.07L143.4 198.74Z" fill="black"/>
<path opacity="0.1" d="M141.85 200.39H166.87L141.85 200.98V200.39Z" fill="black"/>
<path opacity="0.1" d="M179.75 200.98L163.05 201.29H179.81L179.75 200.98Z" fill="black"/>
<path d="M174.53 186.3H136.57V194.08H174.53V186.3Z" fill="white"/>
<path opacity="0.1" d="M174.53 186.3H136.57V194.08H174.53V186.3Z" fill="black"/>
<path opacity="0.1" d="M152.56 186.3H136.57V194.08H152.56V186.3Z" fill="black"/>
<path opacity="0.1" d="M136.57 187.43H170.36L136.57 188.38V187.43Z" fill="black"/>
<path opacity="0.1" d="M174.53 188.78L145.24 189.5H174.53V188.78Z" fill="black"/>
<path opacity="0.1" d="M138.11 190.95L152.55 190.36L173.78 190.95L152.55 191.28L138.11 190.95Z" fill="black"/>
<path opacity="0.1" d="M136.57 192.6H161.59L136.57 193.19V192.6Z" fill="black"/>
<path opacity="0.1" d="M174.47 193.19L157.76 193.5H174.53L174.47 193.19Z" fill="black"/>
<path d="M178.86 178.52H140.9V186.3H178.86V178.52Z" fill="white"/>
<path opacity="0.1" d="M178.86 178.52H140.9V186.3H178.86V178.52Z" fill="black"/>
<path opacity="0.1" d="M156.89 178.52H140.9V186.3H156.89V178.52Z" fill="black"/>
<path opacity="0.1" d="M140.9 179.64H174.69L140.9 180.6V179.64Z" fill="black"/>
<path opacity="0.1" d="M178.86 180.99L149.57 181.72H178.86V180.99Z" fill="black"/>
<path opacity="0.1" d="M142.45 183.17L156.89 182.57L178.12 183.17L156.89 183.5L142.45 183.17Z" fill="black"/>
<path opacity="0.1" d="M140.9 184.82H165.92L140.9 185.41V184.82Z" fill="black"/>
<path opacity="0.1" d="M178.81 185.41L162.1 185.72H178.86L178.81 185.41Z" fill="black"/>
<path d="M204.15 201.71L205.13 197.98H245.68L264.36 199.85L265.07 201.71H204.15Z" fill="black"/>
<path opacity="0.4" d="M245.68 197.98V201.71H204.15L205.13 197.98H245.68Z" fill="black"/>
<path d="M237.54 180.13C237.72 182.1 236.28 183.7 234.32 183.7H172.2C170.23 183.7 168.49 182.1 168.31 180.13L164.62 140.36C164.58 139.95 164.61 139.56 164.7 139.2C165.05 137.8 166.28 136.79 167.84 136.79H229.96C231.93 136.79 233.67 138.39 233.85 140.36L237.54 180.13Z" fill="black"/>
<path opacity="0.4" d="M234.1 183.7H172.2C170.23 183.7 168.49 182.1 168.31 180.13L164.62 140.36C164.58 139.95 164.61 139.56 164.7 139.2H226.6C228.56 139.2 230.3 140.8 230.49 142.77L234.18 182.54C234.22 182.95 234.18 183.34 234.1 183.7Z" fill="black"/>
<path d="M191.42 159.3H204.27L200.85 196.1L221.17 199.15V201.71H178.37V199.15L187.14 196.1L191.42 159.3Z" fill="black"/>
<path opacity="0.1" d="M204.27 159.3L194.75 201.13L187.14 200.9L191.42 159.3H204.27Z" fill="white"/>
<path d="M204.21 362.12H198.09L187.08 208.87H195.21L204.21 362.12Z" fill="black"/>
<path opacity="0.4" d="M204.22 362.12H198.09L187.62 216.48L187.08 209.12H195.21L195.65 216.48L204.22 362.12Z" fill="white"/>
<path opacity="0.2" d="M195.65 216.12H187.62L187.08 209.12H195.21L195.65 216.12Z" fill="black"/>
<path d="M249.17 362.12H243.05L242.05 208.87H250.17L249.17 362.12Z" fill="black"/>
<path opacity="0.5" d="M250.18 209.12L250.02 233.84L249.18 362.12H243.05L242.21 233.84L242.05 209.12H250.18Z" fill="white"/>
<path opacity="0.2" d="M250.18 209.12L250.02 234.12H242.21L242.05 209.12H250.18Z" fill="black"/>
<path d="M314.21 362.12H308.09L297.08 208.87H305.21L314.21 362.12Z" fill="black"/>
<path opacity="0.5" d="M314.22 362.12H308.09L297.62 216.48L297.08 209.12H305.21L305.65 216.48L314.22 362.12Z" fill="white"/>
<path opacity="0.2" d="M305.65 216.12H297.62L297.08 209.12H305.21L305.65 216.12Z" fill="black"/>
<path d="M134.13 362.12H128.01L137.01 208.87H145.14L134.13 362.12Z" fill="black"/>
<path opacity="0.5" d="M145.14 209.12L144.6 216.48L134.13 362.12H128.01L136.57 216.48L137.01 209.12H145.14Z" fill="white"/>
<path opacity="0.2" d="M137.01 209.12H145.14L144.6 216.12H136.57L137.01 209.12Z" fill="black"/>
<path d="M130.57 205.03H311.65V210.54C311.65 211.73 310.68 212.7 309.49 212.7H132.73C131.54 212.7 130.57 211.73 130.57 210.54V205.03Z" fill="#693B93"/>
<path opacity="0.6" d="M130.57 205.03H311.65V210.54C311.65 211.73 310.68 212.7 309.49 212.7H132.73C131.54 212.7 130.57 211.73 130.57 210.54V205.03Z" fill="white"/>
<path opacity="0.2" d="M311.65 205.03H130.57V208.87H311.65V205.03Z" fill="black"/>
<path d="M315.45 206.04H126.77C125.58 206.04 124.61 205.07 124.61 203.88C124.61 202.69 125.58 201.72 126.77 201.72H315.45C316.64 201.72 317.61 202.69 317.61 203.88C317.61 205.07 316.64 206.04 315.45 206.04Z" fill="#693B93"/>
<path opacity="0.6" d="M315.45 206.04H126.77C125.58 206.04 124.61 205.07 124.61 203.88C124.61 202.69 125.58 201.72 126.77 201.72H315.45C316.64 201.72 317.61 202.69 317.61 203.88C317.61 205.07 316.64 206.04 315.45 206.04Z" fill="white"/>
<path d="M270.81 195.05L273.13 191.57C273.59 190.88 274.37 190.46 275.21 190.46H278.15C278.4 190.46 278.64 190.5 278.87 190.57L289.36 193.75C289.96 193.93 290.46 194.33 290.78 194.86L292.28 197.39L270.8 195.05H270.81Z" fill="#693B93"/>
<path opacity="0.2" d="M292.29 197.39L277.02 195.73L270.81 195.05L273.13 191.57C273.59 190.88 274.37 190.46 275.21 190.46H278.15C278.4 190.46 278.64 190.5 278.88 190.57L279.11 190.64L289.36 193.75C289.96 193.93 290.47 194.32 290.79 194.86L292.29 197.39Z" fill="black"/>
<path opacity="0.2" d="M292.29 197.39L277.02 195.73L279.11 190.64L289.36 193.75C289.96 193.93 290.47 194.32 290.79 194.86L292.29 197.39Z" fill="black"/>
<path d="M299.55 201.38V201.71H267.13L268.33 197.02C268.8 195.26 270.4 194.03 272.22 194.03H286.6C287.08 194.03 287.55 194.11 288 194.28L289.8 194.95L296.94 197.61C298.51 198.2 299.55 199.7 299.55 201.38Z" fill="#693B93"/>
<path opacity="0.2" d="M299.55 201.38V201.71H286.24L286.95 196.64C287.14 195.3 288.53 194.48 289.8 194.95L296.94 197.61C298.51 198.2 299.55 199.7 299.55 201.38Z" fill="black"/>
<path d="M288.31 198.26L292.54 185.55C292.72 185 293.35 184.75 293.87 185.01C294.26 185.21 294.46 185.66 294.35 186.09L290.78 199.66C290.78 199.66 288.41 200.62 288.31 198.26Z" fill="black"/>
<path opacity="0.2" d="M270.81 200.66H268.93L269.29 198.81H271.17L270.81 200.66Z" fill="black"/>
<path opacity="0.2" d="M273.61 200.58H271.73L272.09 198.74H273.97L273.61 200.58Z" fill="black"/>
</g>
<defs>
<clipPath id="clip0_325_989">
<rect width="500" height="372.61" fill="white"/>
</clipPath>
</defs>
</svg>
